<?xml version="1.0" encoding="UTF-8" standalone="no"?>
<!-- Created with Inkscape (http://www.inkscape.org/) -->

<svg
   width="297mm"
   height="210mm"
   viewBox="0 0 297 210"
   version="1.1"
   id="svg17760"
   inkscape:version="1.1.1 (c3084ef, 2021-09-22)"
   sodipodi:docname="greenwise-logo.svg"
   xmlns:inkscape="http://www.inkscape.org/namespaces/inkscape"
   xmlns:sodipodi="http://sodipodi.sourceforge.net/DTD/sodipodi-0.dtd"
   xmlns="http://www.w3.org/2000/svg"
   xmlns:svg="http://www.w3.org/2000/svg">
  <sodipodi:namedview
     id="namedview17762"
     pagecolor="#ffffff"
     bordercolor="#666666"
     borderopacity="1.0"
     inkscape:pageshadow="2"
     inkscape:pageopacity="0.0"
     inkscape:pagecheckerboard="0"
     inkscape:document-units="mm"
     showgrid="false"
     inkscape:zoom="0.62716049"
     inkscape:cx="754.99016"
     inkscape:cy="484.72441"
     inkscape:window-width="1680"
     inkscape:window-height="926"
     inkscape:window-x="1432"
     inkscape:window-y="25"
     inkscape:window-maximized="1"
     inkscape:current-layer="layer1" />
  <defs
     id="defs17757" />
  <g
     inkscape:label="Layer 1"
     inkscape:groupmode="layer"
     id="layer1">
    <g
       id="g17851"
       transform="matrix(1.7152547,0,0,1.7152547,-1083.2453,-570.06604)">
      <path
         style="font-size:40px;line-height:1.25;font-family:'Bungee Shade';-inkscape-font-specification:'Bungee Shade';white-space:pre;fill:#000000;fill-opacity:0.9869;stroke:#101100;stroke-width:0.750001;stroke-miterlimit:4;stroke-dasharray:none;stroke-opacity:1"
         d="m 693.86041,364.77267 c -0.20596,0 -0.40169,0.0307 -0.58704,0.0925 -0.16477,0.0412 -0.29855,0.10314 -0.40153,0.18553 l -3.98529,3.36722 c -0.14417,0.12358 -0.25713,0.27818 -0.33951,0.46355 -0.0618,0.18537 -0.093,0.4118 -0.093,0.67953 v 20.01895 c 0,0.4943 0.11348,0.8545 0.34003,1.08107 0.22655,0.22656 0.58678,0.34004 1.08107,0.34004 h 14.33453 c 0.20595,0 0.39127,-0.0307 0.55603,-0.0925 0.18537,-0.0618 0.31967,-0.13414 0.40205,-0.21651 l 4.01577,-3.33623 c 0.14417,-0.12356 0.24724,-0.27819 0.30903,-0.46353 0.0824,-0.18536 0.1235,-0.41182 0.1235,-0.67955 v -3.61477 c 10e-6,-0.49429 -0.11296,-0.85452 -0.33951,-1.08106 -0.22655,-0.22656 -0.58729,-0.34004 -1.08159,-0.34004 h -4.2633 l 2.7497,-2.31666 c 0.14417,-0.12357 0.24724,-0.27816 0.30903,-0.46353 0.0824,-0.18537 0.1235,-0.4118 0.1235,-0.67955 v -3.30573 c 0,-0.32954 -0.0515,-0.59712 -0.15451,-0.80307 -0.0824,-0.20595 -0.22658,-0.36055 -0.43253,-0.46352 l 2.65668,-2.19366 c 0.14417,-0.12359 0.24724,-0.27818 0.30903,-0.46355 0.0824,-0.18537 0.1235,-0.4118 0.1235,-0.67956 v -3.61423 c 0,-0.4943 -0.11296,-0.85503 -0.33951,-1.08159 -0.22655,-0.22657 -0.58729,-0.33952 -1.08159,-0.33952 z"
         id="path11857-5-3-6" />
      <path
         style="font-size:40px;line-height:1.25;font-family:'Bungee Shade';-inkscape-font-specification:'Bungee Shade';white-space:pre;fill:#00ff00;fill-opacity:0.987303;stroke:#101100;stroke-width:0.750001;stroke-miterlimit:4;stroke-dasharray:none;stroke-opacity:1"
         d="m 693.86041,365.08171 h 14.33452 c 0.39132,0 0.6693,0.0926 0.83406,0.278 0.18536,0.16478 0.27802,0.44275 0.27802,0.83407 v 3.61423 c 0,0.39132 -0.0927,0.67972 -0.27802,0.86508 -0.16476,0.16476 -0.44274,0.24702 -0.83406,0.24702 h -8.52661 v 2.37919 h 6.02444 c 0.39132,0 0.66929,0.0926 0.83406,0.27799 0.18536,0.16479 0.27802,0.44276 0.27802,0.83408 v 3.30573 c 0,0.39131 -0.0927,0.67971 -0.27802,0.86508 -0.16477,0.16475 -0.44274,0.24699 -0.83406,0.24699 h -6.02444 v 2.6567 h 8.52661 c 0.39132,0 0.6693,0.0927 0.83406,0.278 0.18536,0.16478 0.27802,0.44276 0.27802,0.83407 v 3.61477 c 0,0.39132 -0.0927,0.67971 -0.27802,0.86505 -0.16476,0.16476 -0.44274,0.24702 -0.83406,0.24702 h -14.33452 c -0.39132,0 -0.6797,-0.0823 -0.86506,-0.24702 -0.16477,-0.18534 -0.24702,-0.47373 -0.24702,-0.86505 v -20.01893 c 0,-0.39132 0.0822,-0.66929 0.24702,-0.83407 0.18536,-0.18535 0.47374,-0.278 0.86506,-0.278 z"
         id="path2444-4" />
      <path
         style="font-size:40px;line-height:1.25;font-family:'Bungee Shade';-inkscape-font-specification:'Bungee Shade';white-space:pre;fill:#000000;fill-opacity:0.9869;stroke:#101100;stroke-width:0.750001;stroke-miterlimit:4;stroke-dasharray:none;stroke-opacity:1"
         d="m 717.15149,364.77267 c -0.20596,0 -0.40168,0.0307 -0.58704,0.0925 -0.16476,0.0412 -0.29855,0.10314 -0.40153,0.18553 l -3.98528,3.36722 c -0.14417,0.12358 -0.25765,0.27818 -0.34003,0.46355 -0.0618,0.18537 -0.0925,0.4118 -0.0925,0.67953 v 20.01895 c 0,0.4943 0.11297,0.8545 0.33952,1.08107 0.22655,0.22656 0.58729,0.34004 1.08159,0.34004 h 14.33452 c 0.20595,0 0.39127,-0.0307 0.55604,-0.0925 0.18536,-0.0618 0.31915,-0.13414 0.40153,-0.21651 l 4.01629,-3.33623 c 0.14416,-0.12356 0.24671,-0.27819 0.30851,-0.46353 0.0824,-0.18536 0.12402,-0.41182 0.12402,-0.67955 v -3.61477 c 0,-0.49429 -0.11348,-0.85452 -0.34003,-1.08106 -0.22655,-0.22656 -0.58678,-0.34004 -1.08107,-0.34004 h -4.26331 l 2.74919,-2.31666 c 0.14416,-0.12357 0.24723,-0.27816 0.30902,-0.46353 0.0824,-0.18537 0.12351,-0.4118 0.12351,-0.67955 v -3.30573 c 0,-0.32954 -0.0515,-0.59712 -0.15451,-0.80307 -0.0824,-0.20595 -0.22658,-0.36055 -0.43253,-0.46352 l 2.6572,-2.19366 c 0.14416,-0.12359 0.24671,-0.27818 0.30851,-0.46355 0.0824,-0.18537 0.12402,-0.4118 0.12402,-0.67956 v -3.61423 c 0,-0.4943 -0.11348,-0.85503 -0.34003,-1.08159 -0.22655,-0.22657 -0.58678,-0.33952 -1.08107,-0.33952 z"
         id="path11859-9-0-6" />
      <path
         style="font-size:40px;line-height:1.25;font-family:'Bungee Shade';-inkscape-font-specification:'Bungee Shade';white-space:pre;fill:#00ff00;fill-opacity:0.987303;stroke:#101100;stroke-width:0.750001;stroke-miterlimit:4;stroke-dasharray:none;stroke-opacity:1"
         d="m 717.15149,365.08171 h 14.33453 c 0.39132,0 0.66929,0.0926 0.83406,0.278 0.18536,0.16478 0.27801,0.44275 0.27801,0.83407 v 3.61423 c 0,0.39132 -0.0926,0.67972 -0.27801,0.86508 -0.16477,0.16476 -0.44274,0.24702 -0.83406,0.24702 h -8.52661 v 2.37919 h 6.02392 c 0.39132,0 0.66929,0.0926 0.83406,0.27799 0.18536,0.16479 0.27802,0.44276 0.27802,0.83408 v 3.30573 c 0,0.39131 -0.0927,0.67971 -0.27802,0.86508 -0.16477,0.16475 -0.44274,0.24699 -0.83406,0.24699 h -6.02392 v 2.6567 h 8.52661 c 0.39132,0 0.66929,0.0927 0.83406,0.278 0.18536,0.16478 0.27801,0.44276 0.27801,0.83407 v 3.61477 c 0,0.39132 -0.0926,0.67971 -0.27801,0.86505 -0.16477,0.16476 -0.44274,0.24702 -0.83406,0.24702 h -14.33453 c -0.39132,0 -0.6797,-0.0823 -0.86506,-0.24702 -0.16477,-0.18534 -0.24753,-0.47373 -0.24753,-0.86505 v -20.01893 c 0,-0.39132 0.0828,-0.66929 0.24753,-0.83407 0.18536,-0.18535 0.47374,-0.278 0.86506,-0.278 z"
         id="path2448-4" />
      <path
         style="font-size:40px;line-height:1.25;font-family:'Bungee Shade';-inkscape-font-specification:'Bungee Shade';white-space:pre;fill:#000000;fill-opacity:0.9869;stroke:#101100;stroke-width:0.750001;stroke-miterlimit:4;stroke-dasharray:none;stroke-opacity:1"
         d="m 685.52345,396.44825 c -0.20596,0 -0.40168,0.0307 -0.58704,0.0925 -0.16477,0.0412 -0.29855,0.10314 -0.40153,0.1855 l -3.98529,3.36725 c -0.14417,0.12356 -0.25713,0.27818 -0.33951,0.46352 -0.0618,0.18537 -0.093,0.4118 -0.093,0.67956 v 3.73827 c 0,0.49429 0.11348,0.85452 0.34003,1.08106 0.22655,0.22656 0.58678,0.34004 1.08107,0.34004 h 2.74971 v 6.88898 l -3.73828,3.15124 c -0.14417,0.12356 -0.25713,0.27816 -0.33951,0.46353 -0.0618,0.18536 -0.093,0.4118 -0.093,0.67955 v 3.67626 c 0,0.49429 0.11348,0.85502 0.34003,1.08159 0.22655,0.22656 0.58678,0.33951 1.08107,0.33951 h 13.16096 c 0.20595,0 0.39127,-0.0307 0.55604,-0.0925 0.18536,-0.0618 0.31914,-0.13414 0.40152,-0.21653 l 4.01629,-3.33621 c 0.14417,-0.12359 0.24673,-0.27819 0.30851,-0.46355 0.0824,-0.18537 0.12351,-0.4118 0.12351,-0.67956 v -3.67625 c 0,-0.4943 -0.11296,-0.85503 -0.33951,-1.08159 -0.22656,-0.22654 -0.5873,-0.33952 -1.08159,-0.33952 h -2.6877 v -6.951 l 3.67678,-3.08919 c 0.14417,-0.12359 0.24673,-0.27819 0.30851,-0.46355 0.0824,-0.18537 0.12351,-0.4118 0.12351,-0.67956 v -3.73827 c 0,-0.49429 -0.11296,-0.8545 -0.33951,-1.08106 -0.22656,-0.22656 -0.5873,-0.34004 -1.08159,-0.34004 z"
         id="path11866-0-4-3" />
      <path
         style="font-size:40px;line-height:1.25;font-family:'Bungee Shade';-inkscape-font-specification:'Bungee Shade';white-space:pre;fill:#00ff00;fill-opacity:0.987303;stroke:#101100;stroke-width:0.750001;stroke-miterlimit:4;stroke-dasharray:none;stroke-opacity:1"
         d="m 685.52345,396.75728 h 13.16044 c 0.39131,0 0.66981,0.0927 0.83457,0.27802 0.18536,0.16476 0.27802,0.44273 0.27802,0.83405 v 3.73827 c 0,0.39132 -0.0927,0.67972 -0.27802,0.86508 -0.16476,0.16476 -0.44326,0.24702 -0.83457,0.24702 h -2.9962 v 10.38024 h 2.9962 c 0.39131,0 0.66981,0.0926 0.83457,0.27802 0.18536,0.16476 0.27802,0.44273 0.27802,0.83405 v 3.67625 c 0,0.39135 -0.0927,0.67971 -0.27802,0.86508 -0.16476,0.16476 -0.44326,0.24702 -0.83457,0.24702 h -13.16044 c -0.39132,0 -0.6797,-0.0823 -0.86506,-0.24702 -0.16477,-0.18537 -0.24702,-0.47373 -0.24702,-0.86508 v -3.67625 c 0,-0.39132 0.0823,-0.66929 0.24702,-0.83405 0.18536,-0.18537 0.47374,-0.27802 0.86506,-0.27802 h 3.05873 v -10.38024 h -3.05873 c -0.39132,0 -0.6797,-0.0823 -0.86506,-0.24702 -0.16477,-0.18536 -0.24702,-0.47376 -0.24702,-0.86508 v -3.73827 c 0,-0.39132 0.0823,-0.66929 0.24702,-0.83405 0.18536,-0.18536 0.47374,-0.27802 0.86506,-0.27802 z"
         id="path2464-8" />
      <path
         style="font-size:40px;line-height:1.25;font-family:'Bungee Shade';-inkscape-font-specification:'Bungee Shade';white-space:pre;fill:#000000;fill-opacity:0.9869;stroke:#101100;stroke-width:0.750001;stroke-miterlimit:4;stroke-dasharray:none;stroke-opacity:1"
         d="m 712.52697,396.44825 c -1.05038,0 -1.98789,0.1338 -2.81172,0.40153 -0.82382,0.24715 -1.51355,0.59748 -2.06964,1.05058 l -4.01629,3.36725 c -0.57668,0.49429 -1.01915,1.10177 -1.32808,1.82263 -0.30894,0.72083 -0.46354,1.54488 -0.46354,2.47169 v 3.24371 c 0,1.48288 0.30869,2.62601 0.92656,3.42926 0.63846,0.78261 1.50362,1.33858 2.59519,1.66809 l -3.08922,2.5952 c -0.14417,0.12358 -0.25765,0.27818 -0.34003,0.46355 -0.0618,0.18536 -0.0925,0.41179 -0.0925,0.67955 v 3.61424 c 0,0.49429 0.11348,0.85502 0.34003,1.08159 0.22655,0.22656 0.58678,0.33951 1.08107,0.33951 h 9.7622 c 1.02978,0 1.95688,-0.13377 2.7807,-0.40153 0.82383,-0.24715 1.52397,-0.60738 2.10065,-1.08106 l 3.98529,-3.33674 c 0.59728,-0.49432 1.05015,-1.10181 1.35909,-1.82264 0.30893,-0.72085 0.46354,-1.54487 0.46354,-2.47168 v -3.24374 c 0,-1.66825 -0.40187,-2.89362 -1.2051,-3.67625 -0.78263,-0.80323 -1.8227,-1.34877 -3.12022,-1.63711 l 2.78071,-2.31717 c 0.14415,-0.12359 0.24722,-0.27818 0.30902,-0.46355 0.0824,-0.18534 0.12351,-0.4118 0.12351,-0.67953 v -3.67628 c 0,-0.49429 -0.11349,-0.8545 -0.34003,-1.08106 -0.22656,-0.22656 -0.58678,-0.34004 -1.08107,-0.34004 z"
         id="path11868-9-8-4" />
      <path
         style="font-size:40px;line-height:1.25;font-family:'Bungee Shade';-inkscape-font-specification:'Bungee Shade';white-space:pre;fill:#00ff00;fill-opacity:0.987303;stroke:#101100;stroke-width:0.750001;stroke-miterlimit:4;stroke-dasharray:none;stroke-opacity:1"
         d="m 712.52697,396.75728 h 8.65012 c 0.39131,0 0.66929,0.0927 0.83405,0.27802 0.18536,0.16476 0.27802,0.44273 0.27802,0.83405 v 3.67628 c 0,0.39132 -0.0927,0.67969 -0.27802,0.86505 -0.16476,0.16476 -0.44274,0.24702 -0.83405,0.24702 h -7.19853 c -0.26774,0 -0.47336,0.0927 -0.61753,0.27802 -0.14417,0.16476 -0.21653,0.38129 -0.21653,0.64905 0,0.26774 0.0724,0.49419 0.21653,0.67956 0.14417,0.18534 0.34979,0.28842 0.61753,0.30901 l 4.60334,0.61753 c 1.44169,0.20596 2.60564,0.67967 3.49126,1.42111 0.8856,0.74144 1.32808,1.97723 1.32808,3.70726 v 3.24374 c 0,1.75061 -0.57677,3.09988 -1.73013,4.0473 -1.13276,0.92679 -2.68765,1.3901 -4.66483,1.3901 h -9.76219 c -0.39132,0 -0.6797,-0.0823 -0.86507,-0.24702 -0.16476,-0.18537 -0.24701,-0.47373 -0.24701,-0.86508 v -3.61476 c 0,-0.39132 0.0822,-0.66929 0.24701,-0.83405 0.18537,-0.18537 0.47375,-0.27802 0.86507,-0.27802 h 8.31008 c 0.26775,0 0.46348,-0.0822 0.58705,-0.24702 0.14417,-0.18537 0.21652,-0.4014 0.21652,-0.64855 0,-0.35012 -0.0724,-0.60777 -0.21652,-0.77255 -0.12357,-0.16476 -0.3193,-0.25742 -0.58705,-0.27803 l -4.63382,-0.64852 c -1.4417,-0.20595 -2.60513,-0.67966 -3.49074,-1.4211 -0.86502,-0.74144 -1.2976,-1.97723 -1.2976,-3.70726 v -3.24427 c 0,-1.75062 0.56636,-3.08896 1.69912,-4.01577 1.13276,-0.94739 2.69806,-1.4211 4.69584,-1.4211 z"
         id="path2460-0" />
      <path
         style="font-size:40px;line-height:1.25;font-family:'Bungee Shade';-inkscape-font-specification:'Bungee Shade';white-space:pre;fill:#000000;fill-opacity:0.9869;stroke:#101100;stroke-width:0.750001;stroke-miterlimit:4;stroke-dasharray:none;stroke-opacity:1"
         d="m 730.97029,396.44825 c -0.20596,0 -0.40169,0.0307 -0.58705,0.0925 -0.16476,0.0412 -0.29854,0.10314 -0.40152,0.1855 l -3.98529,3.36725 c -0.14417,0.12356 -0.25765,0.27818 -0.34003,0.46352 -0.0618,0.18537 -0.0925,0.4118 -0.0925,0.67956 v 20.01893 c 0,0.49429 0.11348,0.85502 0.34003,1.08159 0.22655,0.22656 0.58678,0.33951 1.08107,0.33951 h 14.33453 c 0.20595,0 0.39127,-0.0307 0.55604,-0.0925 0.18536,-0.0618 0.31913,-0.13414 0.40152,-0.21653 l 4.01629,-3.33621 c 0.14416,-0.12359 0.24723,-0.27819 0.30903,-0.46355 0.0824,-0.18537 0.12351,-0.4118 0.12351,-0.67956 v -3.61476 c 0,-0.4943 -0.11348,-0.8545 -0.34004,-1.08106 -0.22654,-0.22654 -0.58677,-0.34005 -1.08107,-0.34005 h -4.2633 l 2.7497,-2.31664 c 0.14416,-0.12358 0.24671,-0.27818 0.30851,-0.46355 0.0824,-0.18536 0.12402,-0.41179 0.12402,-0.67953 v -3.30575 c 0,-0.32951 -0.0515,-0.59709 -0.15451,-0.80304 -0.0824,-0.20595 -0.22658,-0.36057 -0.43253,-0.46355 l 2.65668,-2.19366 c 0.14416,-0.12356 0.24723,-0.27765 0.30903,-0.46302 0.0824,-0.18537 0.12351,-0.41233 0.12351,-0.68006 v -3.61426 c 0,-0.49429 -0.11348,-0.8545 -0.34004,-1.08106 -0.22654,-0.22656 -0.58677,-0.34004 -1.08107,-0.34004 z"
         id="path11870-3-7-0" />
      <path
         style="font-size:40px;line-height:1.25;font-family:'Bungee Shade';-inkscape-font-specification:'Bungee Shade';white-space:pre;fill:#00ff00;fill-opacity:0.987303;stroke:#101100;stroke-width:0.750001;stroke-miterlimit:4;stroke-dasharray:none;stroke-opacity:1"
         d="m 730.97029,396.75728 h 14.33452 c 0.39132,0 0.66929,0.0927 0.83406,0.27802 0.18536,0.16476 0.27802,0.44273 0.27802,0.83405 v 3.61426 c 0,0.39132 -0.0927,0.67972 -0.27802,0.86506 -0.16477,0.16478 -0.44274,0.24754 -0.83406,0.24754 h -8.52661 v 2.37866 h 6.02444 c 0.39132,0 0.66929,0.0926 0.83406,0.27802 0.18536,0.16476 0.27802,0.44273 0.27802,0.83405 v 3.30575 c 0,0.39132 -0.0927,0.67969 -0.27802,0.86506 -0.16477,0.16476 -0.44274,0.24701 -0.83406,0.24701 h -6.02444 v 2.65669 h 8.52661 c 0.39132,0 0.66929,0.0926 0.83406,0.27802 0.18536,0.16476 0.27802,0.44273 0.27802,0.83405 v 3.61476 c 0,0.39135 -0.0927,0.67971 -0.27802,0.86508 -0.16477,0.16476 -0.44274,0.24702 -0.83406,0.24702 h -14.33452 c -0.39132,0 -0.6797,-0.0823 -0.86507,-0.24702 -0.16476,-0.18537 -0.24701,-0.47373 -0.24701,-0.86508 v -20.01893 c 0,-0.39132 0.0822,-0.66929 0.24701,-0.83405 0.18537,-0.18536 0.47375,-0.27802 0.86507,-0.27802 z"
         id="path2456-9" />
      <path
         style="font-size:40px;line-height:1.25;font-family:'Bungee Shade';-inkscape-font-specification:'Bungee Shade';white-space:pre;fill:#000000;fill-opacity:0.9869;stroke:#101100;stroke-width:0.75;stroke-miterlimit:4;stroke-dasharray:none;stroke-opacity:1"
         d="m 648.96186,364.77269 c -1.33872,0 -2.51308,0.13377 -3.52227,0.40153 -0.98859,0.26773 -1.80169,0.66908 -2.44016,1.20457 l -3.98529,3.36775 c -0.63846,0.55607 -1.12257,1.24582 -1.4521,2.06965 -0.32953,0.82383 -0.49455,1.80195 -0.49455,2.93471 v 8.71212 c 0,2.22432 0.63872,4.0369 1.91565,5.4374 1.29752,1.40049 3.2954,2.10066 5.99343,2.10066 h 9.73119 c 0.20596,0 0.39127,-0.0307 0.55604,-0.0925 0.18536,-0.0618 0.31914,-0.13412 0.40152,-0.21651 l 4.0163,-3.33624 c 0.14417,-0.12356 0.24724,-0.27818 0.30902,-0.46352 0.0824,-0.18537 0.12351,-0.41182 0.12351,-0.67955 v -9.5462 c 0,-0.49429 -0.11296,-0.85452 -0.33952,-1.08106 -0.22655,-0.22656 -0.58729,-0.34004 -1.08158,-0.34004 h -4.78834 c -0.20596,0 -0.40168,0.0307 -0.58704,0.0925 -0.16477,0.0412 -0.29855,0.10313 -0.40153,0.18552 l -3.98529,3.36725 -0.15451,0.15452 c -0.0412,0.0412 -0.0719,0.0823 -0.0925,0.1235 v -4.44833 h 4.01578 c 0.20595,0 0.39127,-0.0312 0.55603,-0.093 0.18537,-0.0618 0.31966,-0.13364 0.40205,-0.21601 l 4.01577,-3.33674 c 0.14417,-0.12358 0.24724,-0.27768 0.30903,-0.46302 0.0824,-0.18537 0.1235,-0.41232 0.1235,-0.68008 v -3.73775 c 0,-0.49429 -0.11296,-0.85502 -0.33951,-1.08159 -0.22655,-0.22656 -0.58729,-0.33951 -1.08159,-0.33951 z"
         id="path11853-0-5-3" />
      <path
         style="font-size:40px;line-height:1.25;font-family:'Bungee Shade';-inkscape-font-specification:'Bungee Shade';white-space:pre;fill:#00ff00;fill-opacity:0.987303;stroke:#101100;stroke-width:0.75;stroke-miterlimit:4;stroke-dasharray:none;stroke-opacity:1"
         d="m 648.96186,365.08172 h 7.72304 c 0.39132,0 0.66929,0.0927 0.83406,0.278 0.18536,0.16478 0.27802,0.44276 0.27802,0.83407 v 3.73775 c 0,0.39132 -0.0927,0.67971 -0.27802,0.86508 -0.16477,0.16475 -0.44274,0.24752 -0.83406,0.24752 h -6.42545 c -0.63846,0 -1.11216,0.1338 -1.4211,0.40153 -0.30893,0.24715 -0.46354,0.6282 -0.46354,1.14308 v 7.38354 c 0,0.51488 0.11297,0.89593 0.33952,1.14308 0.24715,0.24715 0.60789,0.37052 1.08159,0.37052 h 2.99671 v -4.81936 c 0,-0.39132 0.0823,-0.66929 0.24701,-0.83404 0.18537,-0.18537 0.47375,-0.27803 0.86507,-0.27803 h 4.78834 c 0.39132,0 0.66929,0.0927 0.83405,0.27803 0.18537,0.16475 0.27803,0.44272 0.27803,0.83404 v 9.5462 c 0,0.39131 -0.0927,0.67971 -0.27803,0.86505 -0.16476,0.16478 -0.44273,0.24702 -0.83405,0.24702 h -9.73119 c -2.57446,0 -4.49009,-0.51483 -5.74642,-1.54462 -1.23574,-1.02978 -1.85363,-2.61588 -1.85363,-4.75784 v -9.63869 c 0,-2.14193 0.61789,-3.72756 1.85363,-4.75731 1.25633,-1.02979 3.17196,-1.54462 5.74642,-1.54462 z"
         id="path2436-7" />
      <path
         style="font-size:40px;line-height:1.25;font-family:'Bungee Shade';-inkscape-font-specification:'Bungee Shade';white-space:pre;fill:#000000;fill-opacity:0.9869;stroke:#101100;stroke-width:0.75;stroke-miterlimit:4;stroke-dasharray:none;stroke-opacity:1"
         d="m 667.7943,364.77269 c -0.20596,0 -0.40168,0.0307 -0.58704,0.0925 -0.16477,0.0412 -0.29855,0.10313 -0.40153,0.18552 l -3.98529,3.36722 c -0.14416,0.12359 -0.25764,0.27819 -0.34003,0.46355 -0.0618,0.18537 -0.0925,0.4118 -0.0925,0.67953 v 20.01896 c 0,0.4943 0.11297,0.8545 0.33952,1.08106 0.22655,0.22657 0.58729,0.34005 1.08159,0.34005 h 4.75733 c 0.20596,0 0.39127,-0.0307 0.55604,-0.0925 0.18536,-0.0618 0.31966,-0.13412 0.40204,-0.21651 l 4.01578,-3.33624 c 0.14416,-0.12356 0.24723,-0.27818 0.30902,-0.46352 0.0824,-0.18537 0.12351,-0.41182 0.12351,-0.67955 v -2.37866 h 0.031 c 0.32953,0 0.55597,0.0927 0.67954,0.278 0.12358,0.16478 0.18552,0.41153 0.18552,0.74104 V 389.58 c 0,0.4943 0.11296,0.8545 0.33951,1.08106 0.22656,0.22657 0.5873,0.34005 1.08159,0.34005 h 4.78834 c 0.20596,0 0.39127,-0.0307 0.55604,-0.0925 0.18536,-0.0618 0.31914,-0.13412 0.40152,-0.21651 l 4.0163,-3.33624 c 0.14417,-0.12356 0.24723,-0.27818 0.30902,-0.46352 0.0824,-0.18537 0.12351,-0.41182 0.12351,-0.67955 v -6.54947 c 0,-1.21516 -0.2988,-2.22449 -0.89607,-3.02774 -0.57668,-0.80322 -1.34866,-1.33834 -2.31665,-1.6061 h 0.0305 c 0.41191,-0.35012 0.7107,-0.80351 0.89607,-1.35961 0.18535,-0.57666 0.27802,-1.24611 0.27802,-2.00814 v -1.4211 c 0,-1.60644 -0.45289,-2.91409 -1.3591,-3.92327 -0.9062,-1.02978 -2.58498,-1.54461 -5.03586,-1.54461 z"
         id="path12243-7-9-5" />
      <path
         style="font-size:40px;line-height:1.25;font-family:'Bungee Shade';-inkscape-font-specification:'Bungee Shade';white-space:pre;fill:#00ff00;fill-opacity:0.987303;stroke:#101100;stroke-width:0.75;stroke-miterlimit:4;stroke-dasharray:none;stroke-opacity:1"
         d="m 667.7943,365.08172 h 10.28723 c 2.30671,0 3.89283,0.48358 4.75785,1.45159 0.88561,0.94739 1.32808,2.18318 1.32808,3.70726 v 1.4211 c 0,0.86503 -0.13378,1.60682 -0.40152,2.22467 -0.24715,0.59727 -0.68962,1.02934 -1.32809,1.29707 1.11217,0.12359 2.00804,0.57698 2.68769,1.35961 0.70026,0.78264 1.05007,1.82272 1.05007,3.12024 v 6.54947 c 0,0.39131 -0.0927,0.67971 -0.27802,0.86505 -0.16477,0.16478 -0.44274,0.24702 -0.83406,0.24702 h -4.78834 c -0.39131,0 -0.6797,-0.0822 -0.86506,-0.24702 -0.16476,-0.18534 -0.24701,-0.47374 -0.24701,-0.86505 v -4.72684 c 0,-0.45312 -0.0927,-0.78261 -0.27802,-0.98859 -0.16477,-0.22653 -0.46356,-0.34001 -0.89607,-0.34001 h -4.32532 v 6.05544 c 0,0.39131 -0.0927,0.67971 -0.27802,0.86505 -0.16476,0.16478 -0.44274,0.24702 -0.83406,0.24702 h -4.75733 c -0.39132,0 -0.6797,-0.0822 -0.86506,-0.24702 -0.16477,-0.18534 -0.24702,-0.47374 -0.24702,-0.86505 v -20.01894 c 0,-0.39131 0.0823,-0.66929 0.24702,-0.83407 0.18536,-0.18534 0.47374,-0.278 0.86506,-0.278 z"
         id="path2440-7" />
      <path
         style="font-size:40px;line-height:1.25;font-family:'Bungee Shade';-inkscape-font-specification:'Bungee Shade';white-space:pre;fill:#000000;fill-opacity:0.9869;stroke:#000000;stroke-width:0.75;stroke-miterlimit:4;stroke-dasharray:none;stroke-opacity:1"
         d="m 673.66389,370.64231 h 2.31701 q 0.80323,0 1.08127,0.43251 0.27804,0.40161 0.27804,1.01948 v 1.05038 q 0,0.61787 -0.27804,1.05038 -0.27804,0.40161 -1.08127,0.40161 h -2.31701 z"
         id="path12237-7-5-2" />
      <path
         style="font-size:40px;line-height:1.25;font-family:'Bungee Shade';-inkscape-font-specification:'Bungee Shade';white-space:pre;fill:#000000;fill-opacity:0.9869;stroke:#101100;stroke-width:0.75;stroke-miterlimit:4;stroke-dasharray:none;stroke-opacity:1"
         d="m 740.44207,364.77269 c -0.20596,0 -0.40169,0.0307 -0.58705,0.0925 -0.16476,0.0412 -0.29855,0.10313 -0.40152,0.18552 l -3.98529,3.36722 c -0.14417,0.12359 -0.25765,0.27819 -0.34003,0.46355 -0.0618,0.18537 -0.0925,0.4118 -0.0925,0.67953 v 20.01896 c 0,0.4943 0.11348,0.8545 0.34003,1.08106 0.22655,0.22657 0.58677,0.34005 1.08107,0.34005 h 4.63382 c 0.20596,0 0.39128,-0.0307 0.55604,-0.0925 0.18536,-0.0618 0.31966,-0.13412 0.40205,-0.21651 l 4.01577,-3.33624 c 0.14417,-0.12356 0.24724,-0.27818 0.30903,-0.46352 0.0824,-0.18537 0.1235,-0.41182 0.1235,-0.67955 v -1.14308 l 0.68007,0.83404 V 389.58 c 0,0.4943 0.11296,0.8545 0.33951,1.08106 0.22655,0.22657 0.58729,0.34005 1.08159,0.34005 h 4.63382 c 0.20596,0 0.39128,-0.0307 0.55604,-0.0925 0.18536,-0.0618 0.31914,-0.13412 0.40153,-0.21651 l 4.01629,-3.33624 c 0.14417,-0.12356 0.24724,-0.27818 0.30903,-0.46352 0.0824,-0.18537 0.1235,-0.41182 0.1235,-0.67955 v -20.01894 c 0,-0.49429 -0.11348,-0.85502 -0.34003,-1.08159 -0.22655,-0.22656 -0.58678,-0.33951 -1.08107,-0.33951 h -4.63434 c -0.20596,0 -0.40117,0.0307 -0.58653,0.0925 -0.16476,0.0412 -0.29906,0.10313 -0.40204,0.18552 l -3.73776,3.12021 -2.13165,-2.47168 c -0.30894,-0.32952 -0.61814,-0.56637 -0.92708,-0.71054 -0.30893,-0.14417 -0.68998,-0.21601 -1.14308,-0.21601 z"
         id="path12161-6-3-9" />
      <path
         style="font-size:40px;line-height:1.25;font-family:'Bungee Shade';-inkscape-font-specification:'Bungee Shade';white-space:pre;fill:#00ff00;fill-opacity:0.987303;stroke:#101100;stroke-width:0.75;stroke-miterlimit:4;stroke-dasharray:none;stroke-opacity:1"
         d="m 740.44207,365.08172 h 3.21272 c 0.39132,0 0.72083,0.0614 0.98857,0.185 0.28834,0.12356 0.56631,0.34012 0.83406,0.64905 l 5.99343,6.85797 v -6.57995 c 0,-0.39131 0.0828,-0.66929 0.24753,-0.83407 0.18536,-0.18534 0.47323,-0.278 0.86455,-0.278 h 4.63434 c 0.39132,0 0.66929,0.0927 0.83406,0.278 0.18536,0.16478 0.27802,0.44276 0.27802,0.83407 v 20.01894 c 0,0.39131 -0.0927,0.67971 -0.27802,0.86505 -0.16477,0.16478 -0.44274,0.24702 -0.83406,0.24702 h -4.63434 c -0.39132,0 -0.67919,-0.0822 -0.86455,-0.24702 -0.16477,-0.18534 -0.24753,-0.47374 -0.24753,-0.86505 v -3.79977 l -5.28288,-6.39497 v 10.19474 c 0,0.39131 -0.0927,0.67971 -0.27802,0.86505 -0.16477,0.16478 -0.44274,0.24702 -0.83406,0.24702 h -4.63382 c -0.39132,0 -0.67971,-0.0822 -0.86507,-0.24702 -0.16476,-0.18534 -0.24701,-0.47374 -0.24701,-0.86505 v -20.01894 c 0,-0.39131 0.0823,-0.66929 0.24701,-0.83407 0.18536,-0.18534 0.47375,-0.278 0.86507,-0.278 z"
         id="path2452-7" />
      <path
         style="font-size:40px;line-height:1.25;font-family:'Bungee Shade';-inkscape-font-specification:'Bungee Shade';white-space:pre;fill:#00ff00;fill-opacity:0.987303;stroke:#000600;stroke-width:1;stroke-miterlimit:4;stroke-dasharray:none;stroke-opacity:1"
         d="m 650.2901,384.54436 q -1.69914,0 -2.78041,-0.21625 -1.08127,-0.21626 -1.69914,-0.67966 -0.61787,-0.49429 -0.86502,-1.23574 -0.21625,-0.77233 -0.21625,-1.8536 v -8.65017 q 0,-2.19344 0.98859,-3.12024 0.98859,-0.9268 3.95436,-0.9268 h 5.34457 v 0.30893 h -5.34457 q -2.71863,0 -3.67632,0.86502 -0.9577,0.83412 -0.9577,2.87309 v 8.65017 q 0,2.00807 1.05038,2.8422 1.08127,0.83412 4.20151,0.83412 h 5.83886 v -5.90065 h 0.30894 v 6.20958 z"
         id="path12249-4-7-5" />
      <path
         id="path12239-5-3-6"
         style="font-size:40px;line-height:1.25;font-family:'Bungee Shade';-inkscape-font-specification:'Bungee Shade';white-space:pre;fill:#00ff00;fill-opacity:0.987303;stroke:#000600;stroke-width:1;stroke-miterlimit:4;stroke-dasharray:none;stroke-opacity:1"
         d="m 670.01845,367.8619 v 16.68269 h 0.30903 v -7.16751 h 8.74262 c 1.17395,0 2.0391,0.25765 2.59519,0.77256 0.55608,0.49429 0.83405,1.24597 0.83405,2.25515 v 4.1398 h 0.30903 v -4.1398 c 0,-1.07096 -0.30921,-1.8846 -0.92707,-2.44068 -0.61787,-0.57668 -1.55487,-0.86505 -2.8112,-0.86505 h -0.33952 c 0.74145,-0.22657 1.23545,-0.63831 1.4826,-1.23558 0.24715,-0.61788 0.37104,-1.40079 0.37104,-2.34818 v -2.13167 c 0,-1.00917 -0.28839,-1.84311 -0.86507,-2.50216 -0.57668,-0.67966 -1.46265,-1.01957 -2.6572,-1.01957 z m 0.30903,0.309 h 6.73447 c 1.09157,0 1.89478,0.29882 2.40967,0.89609 0.53549,0.59727 0.80357,1.36925 0.80357,2.31664 v 2.16268 c 0,1.13273 -0.21655,2.00779 -0.64905,2.62567 -0.43251,0.61786 -1.28726,0.92708 -2.56419,0.92708 h -6.73447 z" />
      <path
         style="font-size:40px;line-height:1.25;font-family:'Bungee Shade';-inkscape-font-specification:'Bungee Shade';white-space:pre;fill:#00ff00;fill-opacity:0.987303;stroke:#000600;stroke-width:1;stroke-miterlimit:4;stroke-dasharray:none;stroke-opacity:1"
         d="m 706.52681,384.23543 v 0.30893 h -10.4111 V 367.8619 h 10.4111 v 0.30893 h -10.10216 v 7.75426 h 7.59979 v 0.30893 h -7.59979 v 8.00141 z"
         id="path12233-5-9-5" />
      <path
         style="font-size:40px;line-height:1.25;font-family:'Bungee Shade';-inkscape-font-specification:'Bungee Shade';white-space:pre;fill:#00ff00;fill-opacity:0.987303;stroke:#000600;stroke-width:1;stroke-miterlimit:4;stroke-dasharray:none;stroke-opacity:1"
         d="m 729.81758,384.23543 v 0.30893 h -10.4111 V 367.8619 h 10.4111 v 0.30893 h -10.10216 v 7.75426 h 7.59979 v 0.30893 h -7.59979 v 8.00141 z"
         id="path12227-0-7-3" />
      <path
         style="font-size:40px;line-height:1.25;font-family:'Bungee Shade';-inkscape-font-specification:'Bungee Shade';white-space:pre;fill:#00ff00;fill-opacity:0.987303;stroke:#000600;stroke-width:1;stroke-miterlimit:4;stroke-dasharray:none;stroke-opacity:1"
         d="m 743.4078,368.10904 11.36879,12.7899 V 367.8619 h 0.30894 v 16.68246 h -0.30894 v -3.18202 l -11.67773,-13.09883 q -0.0309,-0.0309 -0.0927,-0.0618 -0.0309,-0.0309 -0.0618,-0.0309 -0.0309,0 -0.0618,0.0309 0,0.0309 0,0.0618 v 16.28085 h -0.30893 v -16.34263 q 0,-0.18537 0.12357,-0.27805 0.12357,-0.0927 0.24715,-0.0927 0.12357,0 0.21625,0.0618 0.0927,0.0618 0.24715,0.21625 z"
         id="path11861-4-7-0" />
      <path
         style="font-size:40px;line-height:1.25;font-family:'Bungee Shade';-inkscape-font-specification:'Bungee Shade';white-space:pre;fill:#000000;fill-opacity:0.9869;stroke:#101100;stroke-width:0.750001;stroke-miterlimit:4;stroke-dasharray:none;stroke-opacity:1"
         d="m 656.95827,396.44825 c -0.20596,0 -0.40168,0.0307 -0.58705,0.0925 -0.16476,0.0412 -0.29854,0.10314 -0.40152,0.1855 l -3.98529,3.36725 c -0.14417,0.12356 -0.25765,0.27818 -0.34003,0.46352 -0.0618,0.18537 -0.0925,0.4118 -0.0925,0.67956 v 11.92485 c 0,0.67966 0.0203,1.31836 0.0615,1.91563 0.0618,0.57669 0.23721,1.24611 0.52555,2.00816 l 1.5446,4.26331 c 0.12358,0.39132 0.32971,0.71041 0.61805,0.95756 0.28834,0.24714 0.62774,0.37052 1.01906,0.37052 h 4.07831 c 0.20595,0 0.40168,-0.0411 0.58704,-0.12351 0.18536,-0.0618 0.34986,-0.14404 0.49403,-0.24701 l 3.55275,-2.96572 0.61805,2.19316 c 0.12358,0.39132 0.33961,0.67969 0.64854,0.86506 0.30894,0.18536 0.66916,0.27802 1.08107,0.27802 h 4.10931 c 0.18536,0 0.34986,-0.0307 0.49403,-0.0925 0.14417,-0.0618 0.27795,-0.15444 0.40152,-0.27802 l 3.98529,-3.30573 c 0.14417,-0.14417 0.26806,-0.29877 0.37104,-0.46355 0.10298,-0.16476 0.18523,-0.35007 0.24701,-0.55602 l 1.54461,-4.20132 c 0.28834,-0.76203 0.45283,-1.43145 0.49403,-2.00814 0.0618,-0.59727 0.093,-1.23547 0.093,-1.91513 v -11.98685 c 0,-0.49429 -0.11347,-0.85503 -0.34003,-1.08159 -0.22655,-0.22654 -0.58677,-0.33951 -1.08107,-0.33951 h -4.60333 c -0.22656,0 -0.42228,0.0307 -0.58705,0.0925 -0.16476,0.0412 -0.29855,0.10314 -0.40153,0.1855 l -4.01629,3.36725 -0.0305,0.031 c -0.12357,0.10297 -0.21623,0.24717 -0.27801,0.43251 -0.0618,0.18537 -0.093,0.4118 -0.093,0.67956 v 2.8422 h -0.43253 c -0.28834,0 -0.55591,0.0312 -0.80305,0.093 -0.22656,0.0618 -0.42228,0.16433 -0.58705,0.3085 l -1.73013,1.45209 v -8.06307 c 0,-0.49429 -0.11296,-0.8545 -0.33951,-1.08106 -0.22655,-0.22656 -0.58729,-0.34004 -1.08159,-0.34004 z"
         id="path12255-7-9-4" />
      <path
         style="font-size:40px;line-height:1.25;font-family:'Bungee Shade';-inkscape-font-specification:'Bungee Shade';white-space:pre;fill:#00ff00;fill-opacity:0.987303;stroke:#101100;stroke-width:0.750001;stroke-miterlimit:4;stroke-dasharray:none;stroke-opacity:1"
         d="m 656.95827,396.75728 h 4.75733 c 0.39132,0 0.66929,0.0927 0.83406,0.27802 0.18536,0.16476 0.27854,0.44273 0.27854,0.83405 v 11.36883 l 1.79162,-3.89279 c 0.16476,-0.35012 0.38079,-0.59687 0.64853,-0.74104 0.26775,-0.14418 0.59726,-0.21651 0.98858,-0.21651 h 1.29759 c 0.39132,0 0.72083,0.0723 0.98857,0.21651 0.26774,0.14417 0.48429,0.39092 0.64906,0.74104 l 1.79162,3.89279 v -11.36883 c 0,-0.39132 0.0822,-0.66929 0.24701,-0.83405 0.18536,-0.18536 0.47375,-0.27802 0.86507,-0.27802 h 4.60333 c 0.39132,0 0.6693,0.0927 0.83406,0.27802 0.18536,0.16476 0.27802,0.44273 0.27802,0.83405 v 11.98687 c 0,0.65908 -0.0307,1.27696 -0.0925,1.85364 -0.0412,0.55608 -0.1958,1.2151 -0.46354,1.97713 l -1.54461,4.20129 c -0.10298,0.30895 -0.25758,0.5765 -0.46353,0.80306 -0.18537,0.20596 -0.44252,0.30904 -0.77205,0.30904 h -4.10931 c -0.32953,0 -0.62781,-0.0719 -0.89555,-0.21601 -0.26775,-0.14417 -0.44317,-0.38103 -0.52555,-0.71056 l -1.42111,-5.03587 c -0.0618,-0.20595 -0.14403,-0.33973 -0.24701,-0.40153 -0.0824,-0.0824 -0.18545,-0.12351 -0.30902,-0.12351 h -0.27802 c -0.12358,0 -0.23654,0.0411 -0.33952,0.12351 -0.0824,0.0618 -0.15473,0.19558 -0.21652,0.40153 l -1.45211,5.03587 c -0.0824,0.30892 -0.23647,0.54578 -0.46302,0.71056 -0.22655,0.14415 -0.50453,0.21601 -0.83406,0.21601 h -4.0783 c -0.32953,0 -0.61792,-0.10308 -0.86506,-0.30904 -0.22656,-0.20595 -0.39105,-0.47352 -0.49403,-0.80306 l -1.54461,-4.26328 c -0.26774,-0.76206 -0.43276,-1.42108 -0.49454,-1.97716 -0.0412,-0.57668 -0.0615,-1.19456 -0.0615,-1.85361 v -11.92488 c 0,-0.39132 0.0822,-0.66929 0.24702,-0.83405 0.18536,-0.18536 0.47374,-0.27802 0.86506,-0.27802 z"
         id="path2468-8" />
      <path
         style="font-size:40px;line-height:1.25;font-family:'Bungee Shade';-inkscape-font-specification:'Bungee Shade';white-space:pre;fill:#00ff00;fill-opacity:0.987303;stroke:#000600;stroke-width:1;stroke-miterlimit:4;stroke-dasharray:none;stroke-opacity:1"
         d="m 667.2457,408.34222 q 0.4943,0 0.77234,0.30894 0.30893,0.27804 0.74144,1.14305 l 2.8422,5.6844 q 0.15447,0.30893 0.37072,0.37072 0.24715,0.0618 0.4634,0.0618 h 0.15447 q 0.24715,0 0.4634,-0.18536 0.21625,-0.21626 0.24715,-0.4634 l 0.77233,-3.52186 q 0.12358,-0.58697 0.12358,-1.51378 0.0309,-0.9268 0.0309,-1.60646 v -9.08267 h 0.30893 v 9.11357 q 0,0.67965 -0.0309,1.60646 0,0.9268 -0.12357,1.51378 l -0.77234,3.49096 q -0.12357,0.49429 -0.40161,0.74144 -0.24715,0.21625 -0.61787,0.21625 h -0.21625 q -0.27805,0 -0.58698,-0.0927 -0.27804,-0.12357 -0.43251,-0.43251 l -2.8422,-5.74618 q -0.40161,-0.80323 -0.64876,-1.05038 -0.24715,-0.24714 -0.61787,-0.24714 h -0.77233 q -0.37073,0 -0.61787,0.24714 -0.24715,0.24715 -0.64877,1.05038 l -2.84219,5.74618 q -0.15447,0.30894 -0.46341,0.43251 -0.27804,0.0927 -0.55608,0.0927 h -0.21625 q -0.37072,0 -0.64876,-0.21625 -0.24715,-0.24715 -0.37073,-0.74144 l -0.77233,-3.49096 q -0.12358,-0.58698 -0.15447,-1.51378 0,-0.92681 0,-1.60646 v -9.11357 h 0.30893 v 9.08267 q 0,0.67966 0,1.60646 0.0309,0.92681 0.15447,1.51378 l 0.77234,3.52186 q 0.0309,0.24714 0.24715,0.4634 0.21625,0.18536 0.4634,0.18536 h 0.15447 q 0.21625,0 0.4325,-0.0618 0.24715,-0.0618 0.40162,-0.37072 l 2.8422,-5.6844 q 0.4325,-0.86501 0.71055,-1.14305 0.30893,-0.30894 0.80323,-0.30894 z"
         id="path11864-8-3-5" />
      <path
         style="font-size:40px;line-height:1.25;font-family:'Bungee Shade';-inkscape-font-specification:'Bungee Shade';white-space:pre;fill:#00ff00;fill-opacity:0.987303;stroke:#000600;stroke-width:1;stroke-miterlimit:4;stroke-dasharray:none;stroke-opacity:1"
         d="m 697.01589,416.22005 h -9.82412 v -0.30893 h 4.78849 v -16.0646 h -4.78849 v -0.30893 h 9.82412 v 0.30893 h -4.7267 v 16.0646 h 4.7267 z"
         id="path12261-4-3-5" />
      <path
         style="font-size:40px;line-height:1.25;font-family:'Bungee Shade';-inkscape-font-specification:'Bungee Shade';white-space:pre;fill:#00ff00;fill-opacity:0.987303;stroke:#000600;stroke-width:1;stroke-miterlimit:4;stroke-dasharray:none;stroke-opacity:1"
         d="m 719.50874,399.53759 v 0.30893 h -6.85835 q -1.29752,0 -2.06986,0.71055 -0.77234,0.71055 -0.77234,1.79182 v 2.53326 q 0,1.08128 0.43251,1.51378 0.43251,0.43251 1.14306,0.55609 l 6.51852,1.32841 q 0.9268,0.18537 1.51378,0.80323 0.61787,0.61787 0.61787,2.22433 v 1.79182 q 0,1.35932 -0.92681,2.25523 -0.9268,0.86501 -2.50237,0.86501 h -7.69247 v -0.30893 h 7.69247 q 1.4211,0 2.25523,-0.77234 0.86501,-0.80323 0.86501,-2.03897 v -1.79182 q 0,-1.45199 -0.52519,-1.97718 -0.49429,-0.55608 -1.35931,-0.74144 l -6.51852,-1.32842 q -0.80323,-0.15447 -1.32842,-0.61787 -0.49429,-0.49429 -0.49429,-1.76093 v -2.53326 q 0,-1.23574 0.86502,-2.00807 0.86501,-0.80323 2.28611,-0.80323 z"
         id="path12267-0-3-5" />
      <path
         style="font-size:40px;line-height:1.25;font-family:'Bungee Shade';-inkscape-font-specification:'Bungee Shade';white-space:pre;fill:#00ff00;fill-opacity:0.987303;stroke:#000600;stroke-width:1;stroke-miterlimit:4;stroke-dasharray:none;stroke-opacity:1"
         d="m 743.63653,415.91112 v 0.30893 h -10.4111 v -16.68246 h 10.4111 v 0.30893 h -10.10216 v 7.75426 h 7.59979 v 0.30893 h -7.59979 v 8.00141 z"
         id="path12273-0-8-4" />
      <path
         style="fill:#000000;fill-opacity:1;stroke:#000000;stroke-width:0.271123px;stroke-linecap:butt;stroke-linejoin:miter;stroke-opacity:1"
         d="m 794.73903,392.81142 c 0.58722,-2.61023 0.51344,-4.57693 0.92342,-7.3459 0.13523,-0.91334 2.791,-0.49142 4.09729,-2.38576 0.79476,-1.15254 1.65598,-3.32228 1.25099,-4.27212 -0.35573,-0.83425 -0.98225,-0.10379 -1.5214,-0.97721 -0.51576,-0.83552 0.61862,-2.62608 -0.34811,-4.46954 -0.598,-1.14029 -2.34468,-0.1509 -3.29733,-0.58836 -0.62071,-0.98071 -0.20633,-5.22229 -2.18888,-6.2081 -1.11388,-0.55388 -2.46809,1.09015 -3.19365,0.6527 -0.72558,-0.43748 -1.43196,-4.34229 -2.36542,-4.62636 -1.60474,-0.48835 -4.11508,1.59097 -5.55539,1.28147 -1.08612,-0.23339 -4.48659,-4.92711 -7.26078,-4.75641 -1.38711,0.0854 -4.05076,2.67569 -5.66135,4.16219 -2.40153,2.21652 -2.22609,4.93028 -1.3707,6.61277 0.62167,1.22278 2.36657,3.08943 2.15318,4.83931 -0.21341,1.74989 -3.60788,4.78047 -4.9051,7.62476 -0.63403,1.39018 -1.76375,3.45852 -1.01282,6.93661 0.74301,3.44146 2.50782,6.78322 2.31576,8.10629 -0.38412,2.64616 -5.58896,6.53131 -7.54256,8.58336 -1.91779,2.01445 -6.20425,4.47819 -6.22605,9.54846 -0.0196,4.54912 1.63327,7.17662 4.3675,9.2996 3.45509,2.68269 6.51552,2.60543 9.83054,2.34516 2.18893,-0.17187 4.96078,-2.08335 6.66275,-3.67015 1.4191,-1.32308 3.08841,-3.71435 4.00336,-6.89935 1.08567,-1.00831 4.34536,-4.26799 4.90019,-4.86551 1.10969,-1.19504 7.04221,-7.93848 8.47199,-11.05414 1.49139,-2.95584 2.79445,-4.85948 3.47257,-7.87382 z"
         id="path2053"
         sodipodi:nodetypes="csssssccssssssssssssssscsccc" />
      <path
         style="fill:#00ff00;fill-opacity:1;stroke:#000000;stroke-width:0.45;stroke-miterlimit:4;stroke-dasharray:none;stroke-opacity:1"
         d="m 784.39141,373.10729 0.32798,-1.35402 0.11983,-0.7989 -0.54194,-0.71375 -0.86049,-1.18279 -0.21592,-0.4052 1.80051,1.93747 c 0.30889,-0.81365 0.46072,-1.44077 0.73966,-2.48195 l -0.8454,-1.07742 -0.17406,-0.30628 1.14644,1.13979 0.8642,-2.27117 0.0251,0.35177 -0.64977,1.93101 1.2403,-0.23318 0.44945,-0.0517 -1.76015,0.63074 c -0.30912,1.03976 -0.45893,1.68067 -0.66821,2.53926 0.77582,-0.0275 1.52188,-0.23241 2.17664,-0.65689 l 0.37908,-0.20205 c -0.38865,0.32695 -1.11051,0.76341 -1.57339,0.89919 -0.31547,0.0925 -0.73207,0.18053 -0.99514,0.30242 -0.13407,0.5925 -0.41481,1.59189 -0.43277,2.11666 0.76612,0.018 1.50395,-0.38811 2.0946,-0.84852 1.76999,-1.37945 2.39321,-3.78162 1.85082,-5.92402 -0.17942,-0.70898 -0.47093,-1.39881 -0.80903,-2.0459 -0.1217,-0.23283 -0.26635,-0.58233 -0.54853,-0.65386 -0.2803,-0.071 -0.63418,0.0728 -0.89717,0.15923 -0.79298,0.26037 -1.54186,0.68316 -2.19277,1.2034 -1.58825,1.26924 -2.92674,3.80212 -2.09483,5.83568 0.38265,0.93529 1.19022,1.65816 2.0448,2.16101 m 5.08441,2.42102 1.05734,-1.65316 -1.11851,-1.98337 1.25216,1.75186 0.90618,-2.10898 -0.52821,-0.86245 -0.20584,-0.46007 0.84381,1.13708 1.02095,-2.2065 -0.11792,0.46428 -0.70411,1.7542 1.42824,-0.31255 -1.51735,0.46694 -0.89428,2.26178 2.13451,-0.31102 -1.36281,0.40013 -0.81691,0.20271 -0.32618,0.52268 -0.66528,1.15927 c 0.68809,0.1065 1.38868,0.16424 2.06561,-0.0462 2.0572,-0.63974 2.82744,-3.16502 2.56381,-5.10075 -0.10661,-0.78221 -0.40975,-1.52152 -0.79527,-2.2068 -0.12597,-0.22386 -0.27864,-0.57632 -0.52522,-0.69154 -0.2529,-0.11818 -0.56135,0.039 -0.79682,0.13262 -0.61373,0.24395 -1.21227,0.55194 -1.74064,0.94991 -2.00106,1.50737 -3.14414,4.72423 -1.15733,6.74004 m -11.40116,-3.5987 -0.56648,-1.54688 -0.27531,-0.91579 c 0,0 -1.21862,-0.23451 -1.6803,-0.39955 -0.78804,-0.28174 -2.03636,-1.00436 -2.03636,-1.00436 l 0.0446,-0.0772 c 1.11501,0.64375 2.33371,0.92294 3.60945,1.055 l -0.55503,-2.03651 -0.24234,-1.04471 c 0,0 -0.79168,-0.0887 -1.16676,-0.21374 -0.46357,-0.15461 -1.31192,-0.65431 -1.31192,-0.65431 l 0.0446,-0.0772 c 0.73719,0.41749 1.62529,0.67454 2.47262,0.70732 l -0.4463,-2.21837 -0.10789,-1.06778 0.27079,0.90905 0.60399,2.35642 1.65402,-1.61735 0.0772,0.0446 c 0,0 -0.49724,0.71137 -0.82819,1.06169 -0.21349,0.226 -0.77678,0.68687 -0.77678,0.68687 l 0.24904,0.98111 0.62707,2.09702 c 1.03359,-0.83109 2.04649,-1.58461 2.72012,-2.75101 l 0.0772,0.0446 c 0,0 -0.71244,1.21418 -1.31869,1.87732 -0.31327,0.34263 -1.34436,1.20575 -1.34436,1.20575 l 0.28868,0.77098 0.76956,1.59873 c 0.71934,-0.55804 1.41578,-1.20617 1.87618,-2.00355 1.5524,-2.68884 0.42907,-5.77129 -1.89984,-7.57905 -0.70195,-0.5449 -1.48099,-1.01638 -2.30252,-1.35834 -0.29042,-0.1209 -0.66337,-0.36769 -0.99077,-0.2767 -0.68525,0.19042 -1.41501,1.22407 -1.83465,1.76117 -1.66594,2.13223 -2.60796,5.24637 -0.91607,7.66922 1.24734,1.78623 3.26169,1.85444 5.2156,2.01555 m 15.57382,7.24238 0.87192,-1.33949 -0.47131,-1.42203 0.72489,1.18612 c 0.2018,-0.26552 0.94979,-1.06367 1.1717,-1.34256 -0.19979,-0.35698 -0.28008,-0.54353 -0.38741,-0.9136 l 0.53882,0.80308 0.69636,-0.81483 0.50982,-0.54832 -0.43262,0.59292 -0.63008,0.87005 1.16195,0.0373 -1.24715,0.11886 c -0.26842,0.31075 -0.53587,0.71452 -0.99787,1.25508 l -0.15473,0.24147 1.7635,0.29123 -0.10718,0.0478 -1.81009,-0.0677 -0.81451,1.22756 c 2.16676,0.85104 4.31712,-1.3139 4.50385,-3.36744 0.0457,-0.50263 0.0249,-1.00649 -0.0388,-1.50607 -0.0296,-0.23273 -0.036,-0.51002 -0.24514,-0.66108 -0.48136,-0.34768 -1.57186,-0.17005 -2.11079,-0.0781 -1.57731,0.26905 -3.40704,1.70777 -3.32698,3.46869 0.0327,0.71927 0.40605,1.36398 0.83202,1.92126 m 1.22174,3.58678 1.30633,-0.48049 c -0.0417,-0.42213 0.0195,-0.97091 0.006,-1.43682 l 0.0303,0.26847 0.12956,1.05858 1.24923,-1.02629 -0.0656,-0.97701 0.20309,0.84897 1.04969,-0.88326 -0.89409,0.99426 0.92128,0.43501 -0.43473,-0.0995 -0.53982,-0.21968 -1.37915,1.09377 1.35157,0.5379 -0.21394,0.0238 -1.26676,-0.42755 -1.15656,0.66697 c 0.26373,0.24929 0.55484,0.454 0.89488,0.58858 2.61239,1.03424 4.08346,-2.34313 3.96292,-4.369 -2.01504,-0.54101 -4.23019,0.0471 -5.0132,2.14732 -0.15179,0.40707 -0.13193,0.8298 -0.14134,1.25599 m -14.55789,-9.53684 0.52576,2.73952 0.99757,5.13663 c 0,0 1.13747,0.15131 1.70078,0.26201 1.33531,0.26255 2.6927,0.65115 3.95008,1.17789 1.8614,0.77957 3.3821,1.94123 4.97224,3.14997 l -0.0444,0.0772 c -2.33201,-1.77029 -5.31351,-2.71555 -8.13659,-3.372 -0.70587,-0.16409 -1.43764,-0.21504 -2.13648,-0.39843 l 0.2717,2.52338 0.68777,4.92434 c 0.1375,0.90854 0.26619,1.54788 0.4221,2.29391 l 0.90251,0.20292 2.05208,0.54459 3.12196,1.54296 1.07245,0.8157 -0.0446,0.0772 c -2.21128,-1.27668 -4.54523,-2.14431 -7.07333,-2.54041 0.12755,1.55412 0.0935,2.66487 0.0579,3.94338 -0.0691,2.48625 -0.42172,5.02026 -1.02659,7.43286 -0.22498,0.95303 -0.50763,2.09461 -0.87349,2.68531 0.39413,-0.99562 0.49302,-2.16418 0.66606,-3.21666 0.38143,-2.3211 0.66848,-4.65833 0.68404,-7.01329 0.004,-0.76926 -0.0117,-1.53408 -0.0659,-2.30168 -0.032,-0.45265 -0.0797,-0.58474 -0.29418,-1.30166 -2.21402,1.52996 -4.20604,3.8318 -5.59773,6.1313 l -0.0772,-0.0446 c 0.97296,-1.68521 1.904,-3.2907 3.26605,-4.69942 0.50234,-0.51953 1.01189,-1.00753 1.58274,-1.45272 0.24534,-0.19131 0.76938,-0.68762 0.76938,-0.68762 0,0 0.003,-0.58237 -0.0403,-0.84628 -0.094,-0.56942 -0.18255,-1.14018 -0.2853,-1.7082 -0.25898,-1.43216 -0.55356,-2.85732 -0.8177,-4.28835 -0.16586,-0.89821 -0.27011,-1.90315 -0.65501,-2.73542 -3.18608,2.43556 -6.29231,5.37398 -8.31784,8.8823 l -0.0772,-0.0446 c 0.47695,-0.82609 0.83796,-1.70625 1.35154,-2.51222 0.94862,-1.48854 2.06466,-2.90832 3.32101,-4.15323 0.77369,-0.76673 1.54244,-1.53546 2.39281,-2.21974 0.30386,-0.24456 1.08294,-0.91814 1.08294,-0.91814 0,0 -0.27206,-1.46205 -0.41437,-1.9883 -0.50705,-1.87553 -1.06022,-3.94705 -1.97522,-5.66774 -1.63783,0.79945 -3.23426,1.79061 -4.59828,3.00424 -1.0177,0.90549 -1.9518,1.92531 -2.63513,3.10873 -0.56464,0.97776 -1.0426,1.94392 -1.31691,3.0467 -1.79951,7.235 3.86134,13.07126 6.43493,19.27606 1.108,2.6715 1.89968,5.49449 2.37617,8.34435 0.20425,1.22165 0.14077,2.5479 0.42089,3.74133 1.99444,-1.45404 3.68768,-3.52801 5.30858,-5.37223 4.77076,-5.42818 9.36048,-12.12264 10.02826,-19.52158 0.20479,-2.26783 0.16496,-4.61115 -0.42807,-6.8241 -0.9867,-3.68267 -3.70439,-6.58665 -7.24257,-7.93603 -2.01623,-0.76887 -4.10143,-1.12586 -6.24597,-1.30021 m -8.72311,22.95026 c -1.0651,1.8448 -2.20603,3.60764 -3.5963,5.229 -1.41388,1.64889 -2.98912,3.1651 -4.53792,4.68537 -1.3235,1.29905 -2.67621,2.57232 -3.61108,4.19155 -1.07394,1.86016 -1.79287,3.82035 -1.33385,6.00183 0.17998,0.85523 0.49248,1.64663 0.89605,2.4197 0.52781,1.01088 1.30769,1.94247 2.12915,2.72789 1.28492,1.22862 2.71959,2.11477 4.24724,2.97998 1.061,-1.92856 1.45409,-4.21711 2.09488,-6.30164 -1.30979,-0.7562 -2.71609,-1.69418 -3.6985,-2.86113 -0.65295,-0.77558 -1.05583,-1.68511 -1.64917,-2.48997 l 0.0444,-0.0772 c 0.58166,0.66188 1.10085,1.36796 1.73637,1.98253 1.09678,1.06064 2.37502,1.93456 3.69169,2.69473 l 0.63728,-2.41014 0.7152,-3.39408 0.25512,-1.90767 -1.34294,-0.94439 -2.14911,-2.51511 0.0444,-0.0772 c 1.07107,1.19056 2.22037,2.20796 3.61182,3.01131 l 1.09631,-6.36369 0.32236,-1.97462 0.0772,0.0446 -0.49448,4.34465 -0.48187,3.94036 c 1.57121,-0.75889 3.54476,-1.57811 4.68835,-2.95224 l 0.0772,0.0446 c -0.82335,1.06627 -1.9746,1.84949 -3.12788,2.51559 -0.48518,0.28023 -1.64834,0.90038 -1.64834,0.90038 0,0 -0.31016,1.40103 -0.40061,1.92943 -0.20848,1.21919 -0.38536,2.44479 -0.60885,3.66128 -0.12144,0.66064 -0.39279,1.41443 -0.30942,2.08497 1.76956,-0.79933 3.4859,-1.70377 5.06521,-2.83756 0.76553,-0.54968 1.57963,-1.08471 2.16183,-1.83861 -1.1309,1.66576 -3.35298,3.18593 -4.90132,4.16689 -0.55582,0.35088 -1.15785,0.64833 -1.74238,0.94899 -0.25976,0.13359 -0.58836,0.23547 -0.76151,0.48636 -0.32615,0.47238 -0.31761,1.3558 -0.43126,1.91175 -0.2863,1.40103 -0.54552,2.8785 -1.09082,4.20614 0.74317,0.092 1.51666,-0.18467 2.24424,-0.32268 3.89161,-0.73838 6.84391,-3.46655 7.57099,-7.38644 0.46335,-2.49843 0.22767,-5.10133 -0.24259,-7.57771 -0.5254,-2.76688 -1.30962,-5.48862 -2.47425,-8.05722 -0.74912,-1.65209 -1.56767,-3.44344 -2.77303,-4.8205 m 3.46997,10.02894 -0.0772,-0.0446 0.17345,-0.22053"
         id="path911-8-6-1-6-5-2"
         sodipodi:nodetypes="ccccccccccccccccccccccccccsccscccccccccccccccccccccccsccccccscccccscccccccccscccccscccssssssccccccccccccccccccccsscssccccccccccccccccccccccsccccccccccccccccccccccccccccccsscccccccccscccscccscccccccscssccccsccscccccccccccccccscccccccscccccccc" />
    </g>
  </g>
</svg>
