<?xml version="1.0" encoding="UTF-8" standalone="no"?>
<!-- Created with Inkscape (http://www.inkscape.org/) -->

<svg
   width="500"
   height="500"
   viewBox="0 0 132.29166 132.29167"
   version="1.1"
   id="svg2237"
   inkscape:version="1.1.1 (c3084ef, 2021-09-22)"
   sodipodi:docname="user-login-icon.svg"
   xmlns:inkscape="http://www.inkscape.org/namespaces/inkscape"
   xmlns:sodipodi="http://sodipodi.sourceforge.net/DTD/sodipodi-0.dtd"
   xmlns:xlink="http://www.w3.org/1999/xlink"
   xmlns="http://www.w3.org/2000/svg"
   xmlns:svg="http://www.w3.org/2000/svg">
  <sodipodi:namedview
     id="namedview2239"
     pagecolor="#ffffff"
     bordercolor="#666666"
     borderopacity="1.0"
     inkscape:pageshadow="2"
     inkscape:pageopacity="0.0"
     inkscape:pagecheckerboard="0"
     inkscape:document-units="mm"
     showgrid="false"
     inkscape:zoom="0.1898643"
     inkscape:cx="1063.9177"
     inkscape:cy="584.62806"
     inkscape:window-width="1680"
     inkscape:window-height="926"
     inkscape:window-x="1432"
     inkscape:window-y="25"
     inkscape:window-maximized="1"
     inkscape:current-layer="layer1"
     units="px" />
  <defs
     id="defs2234">
    <linearGradient
       inkscape:collect="always"
       id="linearGradient49034">
      <stop
         style="stop-color:#1e66e2;stop-opacity:1"
         offset="0"
         id="stop49030" />
      <stop
         style="stop-color:#0fe9fa;stop-opacity:1"
         offset="1"
         id="stop49032" />
    </linearGradient>
    <linearGradient
       inkscape:collect="always"
       xlink:href="#linearGradient49034"
       id="linearGradient49036"
       x1="2175.1526"
       y1="-329.64059"
       x2="2513.5095"
       y2="-655.31915"
       gradientUnits="userSpaceOnUse" />
  </defs>
  <g
     inkscape:label="Layer 1"
     inkscape:groupmode="layer"
     id="layer1">
    <ellipse
       style="fill:#feffff;fill-opacity:1;stroke:none;stroke-width:3.53092;stroke-miterlimit:4;stroke-dasharray:none;stroke-opacity:1"
       id="path56115"
       cx="66.145836"
       cy="66.145836"
       rx="64.380379"
       ry="64.380371" />
    <g
       id="g56091"
       transform="translate(-550.94968,198.49515)">
      <path
         id="path2418-2-3-1"
         style="fill:url(#linearGradient49036);fill-opacity:1;stroke-width:0.999999"
         d="m 2332.6738,-747.61133 c -10.1312,1.7e-4 -20.262,0.36856 -26.998,1.10742 -92.9432,10.19479 -172.4845,72.32709 -205.4551,160.48438 -5.1643,13.80831 -11.0475,37.61049 -13.1152,53.06445 -2.3347,17.43553 -2.3435,48.62622 -0.022,65 10.2393,72.20357 48.9211,134.06671 108.6426,173.74805 36.4418,24.21339 74.5571,37.07842 121.9472,41.16015 v 0 c 8.3288,0.71736 35.825,-0.39904 47.7109,-1.9375 19.9001,-2.57579 39.5534,-7.80772 58.3672,-15.32031 a 99.617644,99.617644 0 0 0 55.1856,16.72461 99.617644,99.617644 0 0 0 99.6191,-99.61719 99.617644,99.617644 0 0 0 -16.4727,-54.85351 c 6.9612,-17.34134 12.0776,-35.67737 15.2657,-54.9043 2.6229,-15.81502 2.6133,-59.28079 -0.016,-75 -9.6722,-57.83308 -34.9896,-104.97691 -77.9531,-145.1582 -36.5533,-34.18617 -88.5614,-57.78479 -139.707,-63.39063 -6.7392,-0.73865 -16.8708,-1.10758 -27.002,-1.10742 z m 0.6934,19.15625 c 16.5776,0 37.4284,2.87248 55.8066,7.68946 8.764,2.297 26.2613,8.18056 30.2637,10.17578 0.9555,0.47633 6.6863,3.24161 12.7363,6.14648 11.6313,5.58471 22.1899,11.88205 31,18.48828 2.9339,2.19999 6.5892,4.90001 8.1231,6 1.5338,1.1 6.0571,4.83187 10.0527,8.29297 28.6129,24.78539 53.926,62.36159 64.8086,96.20703 0.9727,3.02498 2.2231,6.62501 2.7793,8 1.6764,4.14399 5.2451,19.91621 7.9199,35 1.5001,8.45685 1.4902,54.40381 -0.014,63 -2.9001,16.57695 -6.6054,31.74168 -10.42,42.98438 a 99.617644,99.617644 0 0 0 -67.4843,-26.34375 99.617644,99.617644 0 0 0 -46.4786,11.58593 c -2.0164,-1.64418 -3.9855,-3.19265 -5.8027,-4.48828 -9.4589,-6.74396 -30.7812,-17.90904 -40.7344,-21.33008 -2.8875,-0.99246 -5.25,-2.38913 -5.25,-3.10546 0,-0.71638 0.4754,-1.30274 1.0547,-1.30274 2.6744,0 16.3191,-10.2555 24.5391,-18.44336 16.5302,-16.46577 25.6658,-34.53291 29.8613,-59.05664 2.0176,-11.79375 1.9302,-19.69797 -0.3613,-32.55664 -3.3476,-18.78504 -7.7953,-29.34777 -19.7617,-46.94336 -0.9352,-1.37499 -5.8255,-6.60957 -10.8672,-11.63086 -13.4361,-13.38164 -30.74,-22.91094 -50.9649,-28.0664 -9.7949,-2.49619 -34.975,-2.49212 -45.5,0.008 -32.77,7.7836 -58.5194,28.3414 -73.3711,58.57422 -1.9951,4.0614 -3.6289,8.13271 -3.6289,9.04883 0,0.91612 -0.3973,2.09466 -0.8847,2.61718 -0.4875,0.52249 -1.8375,5.14635 -3,10.27539 -2.6598,11.7351 -2.906,32.4177 -0.5235,43.9668 4.511,21.86684 15.6321,41.90373 31.5059,56.76563 5.6115,5.25377 20.0315,15.4414 21.8574,15.4414 0.5748,0 1.0449,0.57287 1.0449,1.27344 0,0.70057 -3.4875,2.54842 -7.75,4.10547 -9.6195,3.51405 -27.7698,12.91168 -35.75,18.50976 -23.3095,16.35156 -42.502,38.77371 -54.4492,63.61133 -5.2928,11.00349 -10.3263,25.3344 -12.1445,34.57617 -0.6462,3.28449 -1.4897,6.16537 -1.8731,6.40235 -1.6082,0.99394 -17.8352,-18.11664 -26.7285,-31.47852 -18.3221,-27.52834 -29.3109,-54.81692 -35.4375,-88 -2.5686,-13.91233 -3.5789,-46.30715 -1.9394,-62.20898 6.1298,-59.45496 35.3977,-113.34373 83.0722,-152.95117 14.9634,-12.43144 37.1002,-25.58771 56,-33.28321 3.575,-1.45564 7.4,-3.04359 8.5,-3.52929 1.1,-0.48575 5.15,-1.82913 9,-2.98438 3.85,-1.15525 8.35,-2.51823 10,-3.0293 13.3085,-4.12218 43.0258,-8.01367 61.1934,-8.01367 z m -3.7832,81.17578 c 13.2718,-0.28247 26.7711,2.60557 39.334,8.94727 19.1334,9.65854 34.6443,27.99291 41.7734,49.37695 3.5349,10.60298 4.0446,32.92373 1.0176,44.60156 -1.1974,4.61915 -2.8962,9.97334 -3.7754,11.89844 -11.044,24.18168 -31.3561,41.70347 -55.7598,48.10156 -18.5893,4.87367 -39.7831,2.71731 -57,-5.79687 -26.8453,-13.27574 -44.5047,-39.5993 -46.1582,-68.80469 -1.1511,-20.33132 3.8974,-38.3153 15.1563,-54 15.5693,-21.68951 40.075,-33.78496 65.4121,-34.32422 z m 2.7793,194.25 c 4.9907,0.0421 9.9399,0.37295 14.8105,0.99805 24.4268,3.13492 46.6705,11.57843 65.295,24.70313 a 99.617644,99.617644 0 0 0 -33.1465,74.13085 99.617644,99.617644 0 0 0 26.1113,67.19727 c -2.3283,0.81044 -4.5706,1.53693 -6.6387,2.11133 -14.6046,4.05645 -21.1019,5.53758 -32.5957,7.42969 -13.8808,2.2851 -39.6758,3.2295 -54.0254,1.97851 -40.1942,-3.50404 -80.1773,-18.31448 -112.8554,-41.80273 l -7.8555,-5.64649 0.6601,-7.01172 c 1.3805,-14.66573 7.8229,-35.50054 15.2872,-49.43554 13.5057,-25.21365 35.5123,-46.69757 60.9941,-59.54883 19.9478,-10.06031 42.3326,-15.286 63.959,-15.10352 z"
         transform="scale(0.26458333)" />
      <path
         style="fill:none;stroke:#ffffff;stroke-width:5;stroke-linecap:butt;stroke-linejoin:miter;stroke-miterlimit:4;stroke-dasharray:none;stroke-opacity:1"
         d="m 643.03806,-93.96266 9.72902,9.72901 17.02575,-17.02577"
         id="path15741-4" />
    </g>
  </g>
</svg>
