<?xml version="1.0" encoding="UTF-8" standalone="no"?>
<!-- Created with Inkscape (http://www.inkscape.org/) -->

<svg
   width="500"
   height="500"
   viewBox="0 0 132.29166 132.29167"
   version="1.1"
   id="svg2237"
   inkscape:version="1.1.1 (c3084ef, 2021-09-22)"
   sodipodi:docname="user-register-icon.svg"
   xmlns:inkscape="http://www.inkscape.org/namespaces/inkscape"
   xmlns:sodipodi="http://sodipodi.sourceforge.net/DTD/sodipodi-0.dtd"
   xmlns:xlink="http://www.w3.org/1999/xlink"
   xmlns="http://www.w3.org/2000/svg"
   xmlns:svg="http://www.w3.org/2000/svg">
  <sodipodi:namedview
     id="namedview2239"
     pagecolor="#ffffff"
     bordercolor="#666666"
     borderopacity="1.0"
     inkscape:pageshadow="2"
     inkscape:pageopacity="0.0"
     inkscape:pagecheckerboard="0"
     inkscape:document-units="mm"
     showgrid="false"
     inkscape:zoom="0.13895448"
     inkscape:cx="395.81307"
     inkscape:cy="1057.9004"
     inkscape:window-width="1680"
     inkscape:window-height="926"
     inkscape:window-x="1432"
     inkscape:window-y="25"
     inkscape:window-maximized="1"
     inkscape:current-layer="layer1"
     units="px" />
  <defs
     id="defs2234">
    <linearGradient
       inkscape:collect="always"
       id="linearGradient16229">
      <stop
         style="stop-color:#1e65e2;stop-opacity:1"
         offset="0"
         id="stop16225" />
      <stop
         style="stop-color:#0febfa;stop-opacity:1"
         offset="1"
         id="stop16227" />
    </linearGradient>
    <linearGradient
       inkscape:collect="always"
       xlink:href="#linearGradient16229"
       id="linearGradient16231"
       x1="982.14026"
       y1="-157.08168"
       x2="1297.249"
       y2="-504.48572"
       gradientUnits="userSpaceOnUse" />
  </defs>
  <g
     inkscape:label="Layer 1"
     inkscape:groupmode="layer"
     id="layer1">
    <ellipse
       style="fill:#feffff;fill-opacity:1;stroke:none;stroke-width:3.53092;stroke-miterlimit:4;stroke-dasharray:none;stroke-opacity:1"
       id="path56115"
       cx="66.145836"
       cy="66.145836"
       rx="64.380379"
       ry="64.380371" />
    <g
       id="g56082"
       transform="translate(-234.90019,153.82478)">
      <path
         id="path2418-3"
         style="fill:url(#linearGradient16231);fill-opacity:1;stroke-width:0.999999"
         d="m 1138.1562,-578.7793 c -10.1311,1.7e-4 -20.2619,0.37052 -26.998,1.10938 -92.9432,10.19478 -172.48452,72.32513 -205.45508,160.48242 -5.16427,13.80831 -11.04753,37.61049 -13.11523,53.06445 -2.33469,17.43553 -2.34543,48.62622 -0.0234,65 10.23935,72.20357 48.92305,134.06867 108.64451,173.75 36.4418,24.2134 74.5571,37.078421 121.9472,41.160159 v 0 c 8.3288,0.717355 35.825,-0.400996 47.7109,-1.939453 19.8999,-2.575759 39.5536,-7.80592 58.3672,-15.318356 a 99.617644,99.617644 0 0 0 55.1856,16.724606 99.617644,99.617644 0 0 0 99.6172,-99.619136 99.617644,99.617644 0 0 0 -16.4707,-54.85157 c 6.9612,-17.34134 12.0775,-35.67932 15.2656,-54.90625 2.6229,-15.81501 2.6133,-59.28079 -0.016,-75 -9.6723,-57.83308 -34.9897,-104.97691 -77.9532,-145.1582 -36.5533,-34.18617 -88.5614,-57.78479 -139.707,-63.39063 -6.7392,-0.73865 -16.8708,-1.10758 -27.002,-1.10742 z m 0.6934,19.15625 c 16.5777,0 37.4284,2.87249 55.8066,7.68946 8.764,2.297 26.2594,8.18056 30.2618,10.17578 0.9555,0.47633 6.6882,3.24357 12.7382,6.14843 11.6313,5.58471 22.188,11.8801 30.9981,18.48633 2.9339,2.19999 6.5892,4.90001 8.123,6 1.5339,1.1 6.0592,4.83187 10.0547,8.29297 28.6129,24.78539 53.926,62.36159 64.8086,96.20703 0.9727,3.02499 2.2231,6.62501 2.7793,8 1.6764,4.14399 5.2451,19.91621 7.9199,35 1.5001,8.45685 1.4883,54.40381 -0.016,63 -2.9,16.57682 -6.6034,31.74171 -10.418,42.98438 a 99.617644,99.617644 0 0 0 -67.4843,-26.34375 99.617644,99.617644 0 0 0 -46.4805,11.58789 c -2.0161,-1.64392 -3.9857,-3.19478 -5.8027,-4.49024 -9.459,-6.74396 -30.7793,-17.90708 -40.7325,-21.32812 -2.8875,-0.99247 -5.25,-2.39109 -5.25,-3.10742 0,-0.71637 0.4735,-1.30274 1.0528,-1.30274 2.6744,0 16.3191,-10.2555 24.539,-18.44336 16.5303,-16.46577 25.6678,-34.53291 29.8633,-59.05664 2.0176,-11.79375 1.9282,-19.69601 -0.3633,-32.55468 -3.3476,-18.78505 -7.7932,-29.34973 -19.7597,-46.94532 -0.9351,-1.37499 -5.8255,-6.60761 -10.8672,-11.6289 -13.4361,-13.38165 -30.74,-22.91094 -50.9649,-28.06641 -9.7949,-2.49619 -34.975,-2.49212 -45.5,0.008 -32.77,7.7836 -58.5214,28.33945 -73.373,58.57227 -1.9951,4.0614 -3.627,8.13466 -3.627,9.05078 0,0.91612 -0.3992,2.09271 -0.8867,2.61523 -0.4875,0.52249 -1.8375,5.14635 -3,10.27539 -2.6597,11.7351 -2.9059,32.4177 -0.5234,43.9668 4.511,21.86684 15.6321,41.90568 31.5059,56.76758 5.6115,5.25377 20.0334,15.43945 21.8593,15.43945 0.5749,0 1.0449,0.57482 1.0449,1.27539 10e-5,0.70058 -3.4874,2.54647 -7.75,4.10352 -9.6195,3.51405 -27.7698,12.91168 -35.75,18.50976 -23.3094,16.35156 -42.502,38.77371 -54.44917,63.61133 -5.29248,11.0028 -10.32798,25.33629 -12.14648,34.57813 -0.64614,3.28367 -1.48785,6.16541 -1.8711,6.40234 -1.60822,0.99394 -17.83521,-18.11859 -26.72851,-31.48047 -18.32213,-27.52834 -29.31093,-54.81692 -35.4375,-88 -2.56865,-13.91232 -3.57894,-46.30715 -1.93946,-62.20898 6.12979,-59.45496 35.39776,-113.34177 83.07227,-152.94922 14.96345,-12.43143 37.10015,-25.58966 55.99995,-33.28516 3.5751,-1.45564 7.4001,-3.04359 8.5,-3.52929 1.1,-0.48575 5.15,-1.82913 9,-2.98438 3.85,-1.15525 8.3501,-2.51823 10,-3.0293 13.3086,-4.12217 43.0259,-8.01367 61.1934,-8.01367 z m -3.7851,81.17578 c 13.2717,-0.28246 26.773,2.60557 39.3359,8.94727 19.1335,9.65854 34.6443,27.99292 41.7734,49.37695 3.5349,10.60298 4.0427,32.92373 1.0157,44.60157 -1.1974,4.61915 -2.8962,9.97333 -3.7754,11.89843 -11.044,24.18169 -31.3542,41.70347 -55.7579,48.10157 -18.5893,4.87366 -39.7831,2.71925 -57,-5.79493 -26.8453,-13.27574 -44.5047,-39.60124 -46.1582,-68.80664 -1.151,-20.33132 3.8954,-38.3153 15.1543,-54 15.5694,-21.68951 40.0751,-33.78496 65.4122,-34.32422 z m 2.7812,194.25196 c 4.9907,0.0421 9.9399,0.371 14.8105,0.99609 24.4267,3.13491 46.6687,11.58047 65.293,24.70508 a 99.617644,99.617644 0 0 0 -33.1445,74.12891 99.617644,99.617644 0 0 0 26.1094,67.19726 c -2.3277,0.81021 -4.5692,1.53706 -6.6368,2.11133 -14.6046,4.05645 -21.1038,5.53758 -32.5976,7.42969 -13.8809,2.2851 -39.6739,3.23145 -54.0235,1.98047 -40.1942,-3.50404 -80.1773,-18.31449 -112.8554,-41.80274 l -7.85549,-5.64648 0.66016,-7.01368 c 1.38043,-14.66573 7.82283,-35.49858 15.28713,-49.43359 13.5057,-25.21364 35.5104,-46.69952 60.9922,-59.55078 19.9477,-10.06031 42.3345,-15.28404 63.9609,-15.10156 z"
         transform="scale(0.26458333)" />
      <text
         xml:space="preserve"
         style="font-style:normal;font-weight:normal;font-size:66.1458px;line-height:1.25;font-family:sans-serif;fill:#ffffff;fill-opacity:1;stroke:none;stroke-width:0.264583"
         x="320.52261"
         y="-25.476961"
         id="text7892-7"><tspan
           sodipodi:role="line"
           id="tspan7890-1"
           style="font-style:normal;font-variant:normal;font-weight:normal;font-stretch:normal;font-size:66.1458px;font-family:Arial;-inkscape-font-specification:Arial;fill:#ffffff;fill-opacity:1;stroke-width:0.264583"
           x="320.52261"
           y="-25.476961">+</tspan></text>
    </g>
  </g>
</svg>
