<?xml version="1.0" encoding="UTF-8" standalone="no"?>
<!-- Created with Inkscape (http://www.inkscape.org/) -->

<svg
   width="500"
   height="500"
   viewBox="0 0 132.29166 132.29167"
   version="1.1"
   id="svg2237"
   inkscape:version="1.1.1 (c3084ef, 2021-09-22)"
   sodipodi:docname="user-help-icon.svg"
   xmlns:inkscape="http://www.inkscape.org/namespaces/inkscape"
   xmlns:sodipodi="http://sodipodi.sourceforge.net/DTD/sodipodi-0.dtd"
   xmlns:xlink="http://www.w3.org/1999/xlink"
   xmlns="http://www.w3.org/2000/svg"
   xmlns:svg="http://www.w3.org/2000/svg">
  <sodipodi:namedview
     id="namedview2239"
     pagecolor="#ffffff"
     bordercolor="#666666"
     borderopacity="1.0"
     inkscape:pageshadow="2"
     inkscape:pageopacity="0.0"
     inkscape:pagecheckerboard="0"
     inkscape:document-units="mm"
     showgrid="false"
     inkscape:zoom="0.22034598"
     inkscape:cx="1066.5046"
     inkscape:cy="376.68035"
     inkscape:window-width="1680"
     inkscape:window-height="926"
     inkscape:window-x="1432"
     inkscape:window-y="25"
     inkscape:window-maximized="1"
     inkscape:current-layer="layer1"
     units="px" />
  <defs
     id="defs2234">
    <linearGradient
       inkscape:collect="always"
       id="linearGradient38425">
      <stop
         style="stop-color:#1e66e2;stop-opacity:1"
         offset="0"
         id="stop38421" />
      <stop
         style="stop-color:#0febfa;stop-opacity:1"
         offset="1"
         id="stop38423" />
    </linearGradient>
    <linearGradient
       inkscape:collect="always"
       xlink:href="#linearGradient38425"
       id="linearGradient38427"
       x1="1577.7285"
       y1="-265.49503"
       x2="1897.7958"
       y2="-613.3598"
       gradientUnits="userSpaceOnUse" />
  </defs>
  <g
     inkscape:label="Layer 1"
     inkscape:groupmode="layer"
     id="layer1">
    <ellipse
       style="fill:#feffff;fill-opacity:1;stroke:none;stroke-width:3.53092;stroke-miterlimit:4;stroke-dasharray:none;stroke-opacity:1"
       id="path56115"
       cx="66.145836"
       cy="66.145836"
       rx="64.380379"
       ry="64.380371" />
    <g
       id="g56087"
       transform="translate(-392.86955,182.05739)">
      <path
         id="path2418-2-0"
         style="fill:url(#linearGradient38427);fill-opacity:1;stroke-width:0.999999"
         d="m 1735.2031,-685.48438 c -10.1312,1.7e-4 -20.26,0.36857 -26.9961,1.10743 -92.9432,10.19478 -172.4864,72.32513 -205.457,160.48242 -5.1643,13.80831 -11.0456,37.61245 -13.1133,53.06641 -2.3347,17.43552 -2.3454,48.62621 -0.023,65 10.2393,72.20356 48.923,134.06671 108.6445,173.74804 36.4418,24.21339 74.5571,37.07842 121.9473,41.16016 8.3288,0.71735 35.825,-0.39905 47.7109,-1.9375 19.9007,-2.57587 39.5568,-7.80737 58.3711,-15.32031 a 99.617644,99.617644 0 0 0 55.1836,16.72461 99.617644,99.617644 0 0 0 99.6172,-99.61719 99.617644,99.617644 0 0 0 -16.4707,-54.85352 c 6.9612,-17.34134 12.0756,-35.67736 15.2637,-54.90429 2.6229,-15.81502 2.6152,-59.2808 -0.014,-75 -9.6722,-57.83309 -34.9896,-104.97887 -77.9531,-145.16016 -36.5534,-34.18617 -88.5614,-57.78284 -139.7071,-63.38867 -6.7391,-0.73866 -16.8727,-1.10759 -27.0039,-1.10743 z m 0.6953,19.1543 c 16.5777,0 37.4284,2.87444 55.8067,7.69141 8.7639,2.29701 26.2593,8.17861 30.2617,10.17383 0.9555,0.47633 6.6883,3.24356 12.7383,6.14843 11.6312,5.58471 22.1879,11.8801 30.998,18.48633 2.9339,2.19999 6.5892,4.90001 8.1231,6 1.5338,1.1 6.0571,4.83187 10.0527,8.29297 28.6129,24.78539 53.926,62.36159 64.8086,96.20703 0.9727,3.02498 2.2231,6.62501 2.7793,8 1.6764,4.14399 5.2471,19.91621 7.9219,35 1.5,8.45685 1.4882,54.40381 -0.016,63 -2.9,16.57682 -6.6054,31.74171 -10.4199,42.98438 a 99.617644,99.617644 0 0 0 -67.4824,-26.34375 99.617644,99.617644 0 0 0 -46.4805,11.58789 c -2.0164,-1.64418 -3.9855,-3.19266 -5.8027,-4.48828 -9.4589,-6.74397 -30.7792,-17.90904 -40.7324,-21.33008 -2.8875,-0.99247 -5.25,-2.39109 -5.25,-3.10742 0,-0.71638 0.4734,-1.30274 1.0527,-1.30274 2.6744,0 16.3191,-10.2555 24.5391,-18.44336 16.5302,-16.46577 25.6658,-34.53291 29.8613,-59.05664 2.0176,-11.79375 1.9302,-19.69601 -0.3613,-32.55469 -3.3476,-18.78504 -7.7953,-29.34972 -19.7617,-46.94531 -0.9352,-1.37499 -5.8235,-6.60761 -10.8653,-11.6289 -13.436,-13.38165 -30.74,-22.91095 -50.9648,-28.06641 -9.795,-2.49619 -34.9751,-2.49212 -45.5,0.008 -32.77,7.7836 -58.5215,28.33945 -73.3731,58.57227 -1.9951,4.0614 -3.6269,8.13466 -3.6269,9.05078 0,0.91612 -0.3993,2.09271 -0.8867,2.61523 -0.4875,0.52249 -1.8375,5.14635 -3,10.27539 -2.6598,11.7351 -2.906,32.4177 -0.5235,43.9668 4.511,21.86684 15.6321,41.90568 31.5059,56.76758 5.6115,5.25377 20.0334,15.44141 21.8594,15.44141 0.5748,-1e-5 1.0449,0.57286 1.0449,1.27343 0,0.70058 -3.4875,2.54647 -7.75,4.10352 -9.6196,3.51405 -27.7699,12.91168 -35.75,18.50976 -23.3095,16.35156 -42.504,38.77567 -54.4512,63.61329 -5.2928,11.00348 -10.3263,25.33439 -12.1445,34.57617 -0.6462,3.28448 -1.4878,6.16536 -1.8711,6.40234 -1.6082,0.99394 -17.8372,-18.11859 -26.7305,-31.48047 -18.3221,-27.52834 -29.3109,-54.81692 -35.4375,-88 -2.5686,-13.91233 -3.5789,-46.30715 -1.9394,-62.20898 6.1297,-59.45496 35.3997,-113.34178 83.0742,-152.94922 14.9634,-12.43143 37.1001,-25.58771 56,-33.2832 3.575,-1.45565 7.4,-3.04555 8.5,-3.53125 1.1,-0.48575 5.15,-1.82718 9,-2.98243 3.85,-1.15525 8.35,-2.52018 10,-3.03125 13.3085,-4.12218 43.0258,-8.01367 61.1933,-8.01367 z m -3.7851,81.17578 c 13.2718,-0.28247 26.7711,2.60557 39.334,8.94727 19.1334,9.65854 34.6443,27.99487 41.7734,49.37891 3.5349,10.60297 4.0446,32.92177 1.0176,44.5996 -1.1974,4.61915 -2.8962,9.97529 -3.7754,11.9004 -11.044,24.18168 -31.3542,41.70151 -55.7578,48.0996 -18.5894,4.87367 -39.7832,2.71926 -57,-5.79492 -26.8453,-13.27574 -44.5067,-39.59929 -46.1602,-68.80468 -1.1511,-20.33133 3.8974,-38.31531 15.1563,-54 15.5693,-21.68952 40.075,-33.78692 65.4121,-34.32618 z m 2.7793,194.25196 c 4.9907,0.0421 9.9419,0.37295 14.8125,0.99804 24.4266,3.13492 46.6686,11.57852 65.2929,24.70313 a 99.617644,99.617644 0 0 0 -33.1464,74.13086 99.617644,99.617644 0 0 0 26.1113,67.19531 c -2.3277,0.81021 -4.5711,1.53901 -6.6387,2.11328 -14.6046,4.05645 -21.1019,5.53758 -32.5957,7.42969 -13.8808,2.2851 -39.6739,3.2295 -54.0234,1.97851 -40.1943,-3.50403 -80.1793,-18.31448 -112.8574,-41.80273 l -7.8555,-5.64648 0.6601,-7.01368 c 1.3805,-14.66573 7.8229,-35.49859 15.2872,-49.43359 13.5057,-25.21364 35.5123,-46.69757 60.9941,-59.54883 19.9478,-10.06031 42.3326,-15.28599 63.959,-15.10351 z"
         transform="scale(0.26458333)" />
      <text
         xml:space="preserve"
         style="font-style:normal;font-weight:normal;font-size:43.9544px;line-height:1.25;font-family:sans-serif;fill:#ffffff;fill-opacity:1;stroke:none;stroke-width:0.219772"
         x="484.24161"
         y="-61.119904"
         id="text7892-3-9"><tspan
           sodipodi:role="line"
           id="tspan7890-9-7"
           style="font-style:normal;font-variant:normal;font-weight:bold;font-stretch:normal;font-size:43.9544px;font-family:Arial;-inkscape-font-specification:'Arial Bold';fill:#ffffff;fill-opacity:1;stroke-width:0.219772"
           x="484.24161"
           y="-61.119904">?</tspan></text>
    </g>
  </g>
</svg>
