<?xml version="1.0" encoding="UTF-8" standalone="no"?>
<!-- Created with Inkscape (http://www.inkscape.org/) -->

<svg
   width="500"
   height="435"
   viewBox="0 0 132.29166 115.09375"
   version="1.1"
   id="svg5"
   inkscape:version="1.1.1 (c3084ef, 2021-09-22)"
   sodipodi:docname="world-icon.svg"
   xmlns:inkscape="http://www.inkscape.org/namespaces/inkscape"
   xmlns:sodipodi="http://sodipodi.sourceforge.net/DTD/sodipodi-0.dtd"
   xmlns="http://www.w3.org/2000/svg"
   xmlns:svg="http://www.w3.org/2000/svg">
  <sodipodi:namedview
     id="namedview7"
     pagecolor="#ffffff"
     bordercolor="#666666"
     borderopacity="1.0"
     inkscape:pageshadow="2"
     inkscape:pageopacity="0.0"
     inkscape:pagecheckerboard="0"
     inkscape:document-units="mm"
     showgrid="false"
     inkscape:zoom="0.83320433"
     inkscape:cx="193.22991"
     inkscape:cy="210.03251"
     inkscape:window-width="1680"
     inkscape:window-height="926"
     inkscape:window-x="1432"
     inkscape:window-y="25"
     inkscape:window-maximized="1"
     inkscape:current-layer="layer1"
     units="px"
     width="500px" />
  <defs
     id="defs2" />
  <g
     inkscape:label="Layer 1"
     inkscape:groupmode="layer"
     id="layer1">
    <path
       style="fill:#000000;stroke-width:0.150581"
       d="m 53.086313,114.98072 c -0.28987,-0.0324 -1.17076,-0.13046 -1.95755,-0.21802 -3.67665,-0.40915 -8.49233,-1.45848 -11.76869,-2.56439 -3.79604,-1.28132 -8.82314,-3.58581 -11.4207,-5.23542 -0.53833,-0.34187 -1.1733,-0.73006 -1.41105,-0.86266 -0.61654,-0.34384 -3.7557,-2.59496 -4.91334,-3.52341 C 14.835163,97.139302 9.2461728,90.075564 5.5276528,82.244551 0.21200284,71.050054 -1.3229772,58.347496 1.1535628,46.04717 5.1858828,26.019721 19.854433,9.3816935 39.124853,2.9776655 c 5.89745,-1.9598594 10.68054,-2.77440237 17.05918,-2.90510237 6.55977,-0.134412 11.3262,0.444796 17.12045,2.08045637 3.55517,1.003583 8.21616,2.840201 10.87671,4.285856 5.81522,3.159803 9.52919,5.8730145 13.75636,10.0496035 5.842957,5.773031 10.167237,12.230905 13.128337,19.605836 3.68014,9.16581 4.90989,19.093574 3.59652,29.034991 -0.17436,1.319842 -0.28267,2.542871 -0.24067,2.717837 0.042,0.174972 0.38343,1.362073 0.75875,2.638002 0.37532,1.275929 0.82875,3.105483 1.00762,4.065675 0.17887,0.960188 0.34963,1.830501 0.37947,1.934027 0.0378,0.131001 0.43336,0.188381 1.30128,0.188741 2.79987,0.0013 7.15385,0.577974 10.35697,1.372105 3.81708,0.946348 4.06584,1.154247 4.06584,3.398012 0,4.360042 -1.63428,11.267427 -3.81303,16.115977 -0.93512,2.08102 -2.55183,4.880318 -3.72151,6.443748 -3.21967,4.30349 -7.36266,7.48936 -11.24162,8.64457 -5.81974,1.73319 -11.78253,0.41237 -16.514477,-3.65812 -1.81686,-1.5629 -2.30181,-2.768 -1.55833,-3.87247 0.51606,-0.76661 1.01696,-0.93909 2.81777,-0.97022 6.084517,-0.10519 10.728357,-3.83468 13.082587,-10.506698 1.20615,-3.418293 1.59361,-5.909724 1.58494,-10.191298 -0.008,-4.115803 -0.35129,-6.699279 -1.44423,-10.879439 -0.54571,-2.087142 -0.29385,-1.976282 -3.16436,-1.392839 -7.54234,1.533012 -13.738467,4.612373 -18.039707,8.965415 -2.45904,2.488657 -4.08882,5.089318 -4.76175,7.598409 -0.22248,0.829522 -0.28146,1.567302 -0.27689,3.463354 0.005,2.233838 0.0368,2.502498 0.43165,3.689218 0.67801,2.03786 1.56665,3.59417 2.91902,5.112188 l 0.59696,0.67007 1.17301,-0.895928 c 3.30793,-2.52657 6.88824,-6.12923 9.670847,-9.731237 0.96367,-1.247455 1.36173,-1.647026 1.77749,-1.784239 1.35634,-0.44763 2.77481,0.580935 2.77481,2.012069 0,1.716317 -7.179727,9.426057 -12.422897,13.339965 -8.13503,6.07261 -16.95874,9.64362 -27.40565,11.09122 -1.70816,0.23669 -10.21323,0.43587 -11.66999,0.2733 z m 11.14296,-4.34468 c 7.41169,-1.01532 13.76112,-3.1438 19.91427,-6.67575 0.80749,-0.4635 1.46816,-0.90406 1.46816,-0.97901 0,-0.075 -0.27,-0.44301 -0.6,-0.81792 -3.25773,-3.700968 -4.76703,-9.635768 -3.70618,-14.573202 1.5683,-7.299158 8.18569,-14.053089 17.55727,-17.919544 2.961847,-1.221978 8.417587,-2.705076 10.907137,-2.965018 0.47782,-0.04989 0.56004,-0.216935 0.73181,-1.486734 l 0.093,-0.687705 -1.56764,-0.191592 c -3.97779,-0.486151 -7.50302,-2.544877 -10.208997,-5.962028 -2.14595,-2.709953 -3.86875,-6.660248 -4.39994,-10.088894 -0.44752,-2.888511 -0.66975,-3.759742 -1.24427,-4.877763 -1.80769,-3.517844 -4.91796,-5.657172 -7.82942,-5.385294 -1.08476,0.101295 -1.87242,0.418274 -3.39669,1.366938 -2.55005,1.587079 -4.36175,2.185707 -6.96969,2.302954 -2.15274,0.09678 -3.57922,-0.156353 -5.27895,-0.936773 -2.38547,-1.095274 -3.97808,-2.614628 -5.28672,-5.043538 -1.66705,-3.094154 -2.10221,-7.027924 -1.17057,-10.581464 0.66109,-2.521551 2.47099,-5.889077 4.42923,-8.241102 2.07977,-2.498002 5.2204,-5.424498 8.15287,-7.5969895 0.8696,-0.644237 1.60098,-1.223206 1.62529,-1.286597 0.0527,-0.137439 -2.74702,-1.146853 -5.03586,-1.815642 -1.6597,-0.484949 -6.33854,-1.49694 -6.92351,-1.497495 -0.31058,-2.86e-4 -2.06523,0.906489 -3.29346,1.702025 -5.21332,3.376712 -8.58904,6.6275145 -9.53202,9.1792935 -0.16024,0.433608 -0.43764,1.872553 -0.61646,3.19766 -0.89191,6.609318 -1.63265,9.347162 -3.04026,11.236977 -1.42917,1.918748 -3.15358,2.6943 -5.98004,2.689497 -4.18511,-0.0071 -6.98621,-2.101453 -9.17586,-6.860669 -1.42115,-3.08888 -2.22647,-7.099116 -2.68141,-13.352541 -0.0527,-0.724667 -0.14419,-1.317581 -0.20325,-1.317581 -0.0591,0 -0.71366,0.380317 -1.45464,0.845144 -5.8172,3.649191 -10.75665,8.162503 -14.70267,13.434229 -0.57832,0.772602 -1.02859,1.421774 -1.0006,1.442604 0.028,0.02083 0.5252,0.161991 1.10493,0.313699 0.57974,0.151713 1.96884,0.576464 3.0869,0.943898 9.00084,2.957997 15.05359,7.251216 17.56506,12.458923 2.07906,4.311081 1.82115,8.802335 -0.80188,13.963922 -1.59299,3.134672 -1.8302,3.662709 -2.08407,4.639133 -0.32661,1.256202 -0.24023,2.363189 0.23995,3.074889 0.75125,1.113478 3.28881,1.839629 5.05075,1.445326 1.5922,-0.356319 2.36408,-1.428033 3.58551,-4.978318 1.4195,-4.125957 2.78478,-6.292947 4.82419,-7.656986 1.68756,-1.128707 3.10865,-1.540504 5.65822,-1.639612 3.99169,-0.15517 6.49839,0.829874 8.21398,3.227811 1.17404,1.641009 1.76916,3.339367 2.46949,7.04756 0.67959,3.59832 1.1252,5.229585 1.82244,6.671533 0.71214,1.472737 1.95979,2.817883 3.18043,3.428968 1.46783,0.734832 3.26694,2.028386 4.44581,3.196521 3.50153,3.469666 6.16247,9.133549 7.37115,15.689733 0.33363,1.80965 0.3817,7.554956 0.075,8.959536 -0.78469,3.593308 -2.07808,5.753278 -4.3278,7.227428 -2.73086,1.78945 -5.47917,1.5671 -8.10028,-0.65532 -1.41186,-1.19711 -2.27262,-2.29377 -5.33566,-6.797978 -1.33071,-1.95682 -2.89427,-3.89548 -3.59601,-4.45871 -2.2977,-1.844173 -4.27485,-2.18461 -9.08608,-1.56451 -4.15454,0.53547 -6.43616,0.34598 -8.44896,-0.701663 -1.52549,-0.794012 -2.36396,-1.593776 -4.11413,-3.924247 -2.18707,-2.91224 -3.5077,-4.223097 -4.99614,-4.95921 -1.05217,-0.52035 -1.3094,-0.584231 -2.53682,-0.630036 -1.80213,-0.06725 -2.77768,0.195051 -5.50264,1.479513 -1.20088,0.566057 -2.63156,1.165698 -3.1793,1.332539 -2.84266,0.865855 -5.90828,0.796171 -9.13723,-0.20769 -0.32436,-0.100838 -0.31135,-0.04893 0.21373,0.853036 0.70643,1.213466 1.9916,3.13015 3.26911,4.8755 1.36315,1.862348 1.62476,2.180618 3.27902,3.989178 9.15981,10.014138 21.24088,16.003328 34.91787,17.310548 2.1305,0.20363 9.23465,0.0707 11.29354,-0.21139 z m 47.658737,-1.80963 c 4.82498,-1.3297 9.85332,-6.40122 12.72297,-12.832238 1.44876,-3.24674 2.71544,-7.638958 3.2326,-11.209076 0.34722,-2.396956 0.33916,-2.461331 -0.33284,-2.658846 -1.89187,-0.556045 -6.2091,-1.179126 -8.88425,-1.282207 l -1.54346,-0.05947 v 2.729679 c 0,8.32825 -2.43861,15.37533 -6.8334,19.747098 -2.00695,1.99644 -3.91772,3.18587 -6.62336,4.12294 l -1.18445,0.41023 0.99228,0.42173 c 1.88626,0.80167 2.95349,0.98433 5.36701,0.91861 1.39218,-0.0379 2.51083,-0.14969 3.0869,-0.30845 z M 72.556323,101.7241 c 1.03086,-0.5273 1.61014,-1.1299 2.12799,-2.213628 2.3483,-4.91447 0.82264,-14.484748 -3.34059,-20.955147 -0.37301,-0.579731 -0.72032,-1.087942 -0.77178,-1.12935 -0.0515,-0.0414 -0.41016,-0.452604 -0.7971,-0.913765 -0.88133,-1.050393 -1.94724,-1.877213 -3.58823,-2.783369 -4.37108,-2.413727 -6.07689,-5.348507 -7.45065,-12.818541 -0.69118,-3.75839 -1.34102,-5.574514 -2.2681,-6.338689 -1.53047,-1.261541 -5.01581,-1.414775 -7.26548,-0.319429 -1.61232,0.785027 -2.33952,1.928681 -3.72427,5.857029 -1.05067,2.980623 -1.87732,4.54425 -2.99142,5.658352 -1.52416,1.524164 -3.20605,2.167745 -5.66307,2.166999 -4.08661,-0.0013 -7.54867,-2.243887 -8.25701,-5.34869 -0.59385,-2.602976 -0.14784,-4.635225 1.8921,-8.621318 0.69114,-1.350486 1.47354,-3.078401 1.73868,-3.8398 0.45742,-1.313569 0.48192,-1.496036 0.47913,-3.567787 -0.003,-1.984357 -0.0385,-2.27597 -0.39335,-3.198564 -0.63937,-1.662528 -1.3234,-2.664407 -2.92162,-4.279265 -3.41671,-3.452273 -9.24196,-6.302203 -16.71012,-8.175231 l -1.20063,-0.301114 -0.23591,0.30993 c -0.4786,0.628769 -2.5523002,4.941708 -3.3588702,6.985863 -2.66744,6.760326 -3.84145,13.460923 -3.66606,20.923797 0.13759,5.854324 0.87545,10.166559 2.68734,15.705571 l 0.75138,2.297004 1.00758,0.813742 c 2.6556302,2.144742 5.8031502,3.157268 8.6968302,2.797683 1.51291,-0.188 2.86931,-0.649483 4.74287,-1.613654 4.14415,-2.132653 7.98946,-2.379998 11.27127,-0.725016 2.30896,1.164391 3.97078,2.726285 6.49491,6.104384 0.8973,1.200878 1.8703,2.342989 2.16222,2.538024 1.40296,0.937307 2.97374,1.09008 6.33866,0.616505 6.80265,-0.957408 10.16887,-0.07122 13.64856,3.593111 1.17855,1.241095 1.72923,1.973705 5.14862,6.849635 1.5742,2.244748 2.49031,3.260158 3.41345,3.783478 0.78819,0.44681 1.33052,0.48506 2.00267,0.14125 z M 111.03302,58.06219 C 111.20261,50.212786 109.38275,41.928854 105.8756,34.585815 101.03341,24.4476 92.936203,15.887263 83.193943,10.606851 l -1.13782,-0.6167155 -1.57262,1.0653265 c -7.27661,4.929296 -12.05541,10.407298 -13.27043,15.212062 -0.41011,1.621758 -0.3306,4.328617 0.17357,5.909003 1.38596,4.344498 5.36984,6.425588 9.64197,5.036756 0.93482,-0.3039 1.62621,-0.663458 3.7281,-1.938822 1.41416,-0.858067 2.71621,-1.241541 4.51558,-1.329909 2.48544,-0.122066 4.3168,0.381426 6.53307,1.796126 1.29798,0.828535 3.3131,2.842173 4.14379,4.140756 1.31701,2.058816 2.14402,4.4303 2.38049,6.826112 0.15716,1.592385 0.81579,3.884245 1.58511,5.51579 2.262157,4.797497 5.527957,7.531238 9.563967,8.005826 1.6365,0.192434 1.49919,0.383873 1.5543,-2.166972 z M 45.012513,28.129206 c 1.37336,-0.804837 2.01543,-2.986334 2.95265,-10.031962 0.47607,-3.578865 0.98399,-4.948308 2.66343,-7.181073 1.47268,-1.9578675 5.11071,-5.2719355 7.15659,-6.5192885 l 0.49616,-0.302503 -1.36277,-4.27e-4 c -6.057,-0.0026 -13.38405,1.466289 -19.38888,3.88672 l -2.13659,0.861214 -0.0481,1.6537805 c -0.0848,2.913647 0.45722,7.46465 1.25506,10.538026 1.01748,3.919477 2.69855,6.538552 4.66571,7.269089 0.77059,0.286164 1.02242,0.319461 2.05922,0.272244 0.75959,-0.03457 1.17186,-0.14347 1.68755,-0.445687 z"
       id="path859" />
  </g>
</svg>
